<?xml version="1.0" encoding="UTF-8"?><svg id="Layer_2" xmlns="http://www.w3.org/2000/svg" xmlns:xlink="http://www.w3.org/1999/xlink" viewBox="0 0 309.4263036 60.0000321"><defs><style>.cls-1{fill:url(#linear-gradient);}.cls-1,.cls-2,.cls-3{stroke-width:0px;}.cls-2{fill:url(#linear-gradient-2);}.cls-3{fill:#1f2961;}</style><linearGradient id="linear-gradient" x1="14.8413403" y1="22.5436904" x2="27.4731407" y2="44.6493411" gradientUnits="userSpaceOnUse"><stop offset="0" stop-color="#909cf7"/><stop offset="1" stop-color="#4b38d8"/></linearGradient><linearGradient id="linear-gradient-2" x1="7.9837957" y1="-1.3582919" x2="21.0009873" y2="21.4217935" xlink:href="#linear-gradient"/></defs><g id="Plausible_-_Branding"><g id="Gradient_Logo_-_Purple_Gradient_on_White"><path id="Wordmark_-_Black" class="cls-3" d="m64.4259774,52.1312495V11.5311518h17.2260742c2.4360352,0,4.6201172.5708008,6.5541992,1.7109375,1.9331055,1.1411133,3.4697266,2.6972656,4.6108398,4.6689453,1.1401367,1.972168,1.7109375,4.1962891,1.7109375,6.6704102,0,2.5136719-.5708008,4.7758789-1.7109375,6.7856445-1.1411133,2.0112305-2.6777344,3.605957-4.6108398,4.7851562-1.934082,1.1801758-4.1181641,1.769043-6.5541992,1.769043h-8.5258789v14.2099609h-8.7001953Zm8.5839844-22.0400391h7.65625c.9277344,0,1.7587891-.2412109,2.4941406-.7250977.7338867-.4829102,1.3237305-1.1308594,1.7685547-1.9428711.4443359-.8120117.6674805-1.7402344.6674805-2.7841797s-.2231445-1.9516602-.6674805-2.7255859c-.4448242-.7734375-1.034668-1.3920898-1.7685547-1.8564453-.7353516-.4638672-1.5664062-.6958008-2.4941406-.6958008h-7.65625v10.7299805Zm27.027832,22.0400391V9.2113276h8.2363281v42.9199219h-8.2363281Zm26.3320312.5800781c-2.5522461,0-4.8530273-.6962891-6.9018555-2.0878906-2.050293-1.3920898-3.6743164-3.2861328-4.8720703-5.684082-1.1992188-2.3969727-1.7983398-5.1420898-1.7983398-8.2363281,0-3.0927734.609375-5.8378906,1.8271484-8.2358398,1.2182617-2.3969727,2.8710938-4.2719727,4.9589844-5.6259766,2.0878906-1.3530273,4.4663086-2.0297852,7.1342773-2.0297852,1.5078125,0,2.8896484.2226562,4.1469727.6669922,1.2558594.4448242,2.3579102,1.0537109,3.3056641,1.8266602.9472656.7739258,1.7490234,1.6630859,2.4072266,2.6679688.6567383,1.0063477,1.1210938,2.0883789,1.3920898,3.2480469l-1.7402344-.2900391v-7.4819336h8.1782227v30.6821289h-8.2939453v-7.3662109l1.855957-.1738281c-.3100586,1.0830078-.8120117,2.1079102-1.5083008,3.0742188-.6958008.9667969-1.5566406,1.8266602-2.5810547,2.5810547-1.0249023.7539062-2.1748047,1.3535156-3.4506836,1.7978516-1.2758789.4438477-2.6298828.6669922-4.0600586.6669922Zm2.2617188-7.1342773c1.5463867,0,2.9003906-.3666992,4.0600586-1.1015625,1.1601562-.734375,2.059082-1.769043,2.6972656-3.1030273.6376953-1.3339844.9570312-2.8901367.9570312-4.6694336,0-1.7397461-.3193359-3.2666016-.9570312-4.581543-.6381836-1.3144531-1.5371094-2.3491211-2.6972656-3.1030273-1.159668-.7543945-2.5136719-1.1313477-4.0600586-1.1313477-1.5078125,0-2.8325195.3769531-3.9726562,1.1313477-1.1411133.7539062-2.0400391,1.7885742-2.6972656,3.1030273-.6577148,1.3149414-.9858398,2.8417969-.9858398,4.581543,0,1.7792969.328125,3.3354492.9858398,4.6694336.6572266,1.3339844,1.5561523,2.3686523,2.6972656,3.1030273,1.1401367.7348633,2.4648438,1.1015625,3.9726562,1.1015625Zm32.8276367,7.1342773c-2.2426758,0-4.1669922-.4931641-5.7709961-1.4790039-1.6049805-.9858398-2.8417969-2.3969727-3.7119141-4.2338867-.8701172-1.8364258-1.3046875-4.050293-1.3046875-6.6411133v-18.9082031h8.2358398v17.5742188c0,1.3920898.2319336,2.6010742.6958008,3.625.4643555,1.0249023,1.1210938,1.8081055,1.972168,2.3491211.8500977.5415039,1.894043.8120117,3.1318359.8120117.8891602,0,1.7109375-.1450195,2.465332-.4350586.7539062-.2900391,1.4106445-.7050781,1.9716797-1.2470703.5600586-.5410156.9951172-1.1791992,1.3051758-1.9140625.309082-.7338867.4638672-1.5268555.4638672-2.3779297v-18.3862305h8.2358398v30.6821289h-7.8295898l-.2900391-6.3217773,1.5078125-.6962891c-.4638672,1.4311523-1.237793,2.7260742-2.3198242,3.8862305-1.0830078,1.159668-2.3779297,2.0688477-3.8862305,2.7260742-1.5078125.6567383-3.1318359.9858398-4.8720703.9858398Zm35.1474609,0c-2.8618164,0-5.4038086-.4741211-7.6269531-1.4208984-2.2241211-.9472656-4.0117188-2.2524414-5.3647461-3.9150391l5.1616211-4.4082031c1.1601562,1.2758789,2.4741211,2.1948242,3.9443359,2.7548828,1.46875.5610352,2.9379883.8413086,4.4077148.8413086.5800781,0,1.1113281-.0673828,1.5952148-.203125.4829102-.1352539.8989258-.328125,1.2470703-.5800781.3476562-.2509766.6088867-.5600586.7827148-.9277344.1743164-.3671875.2612305-.7631836.2612305-1.1889648,0-.8500977-.3371405-1.5252469-1.0439453-1.972168-.3814904-.2412209-.9863281-.4931641-1.7983398-.7832031s-1.855957-.6088867-3.1318359-.9570312c-1.972168-.5019531-3.6450195-1.0917969-5.0170898-1.769043-1.3730469-.6757812-2.4648438-1.4399414-3.2768555-2.2910156-.6958008-.8115234-1.2280273-1.690918-1.5952148-2.6386719-.3676758-.9472656-.5507812-2.0009766-.5507812-3.1611328,0-1.3920898.309082-2.6582031.9277344-3.7988281.6181641-1.1401367,1.4790039-2.1171875,2.5810547-2.9291992s2.3681641-1.4399414,3.7993164-1.8847656c1.4296875-.4443359,2.9379883-.6669922,4.5239258-.6669922,1.5849609,0,3.1318359.1938477,4.6401367.5795898,1.5078125.387207,2.9086914.9379883,4.2045898,1.6533203,1.2954102.7158203,2.4262695,1.5566406,3.3930664,2.5229492l-4.4077148,4.8720703c-.6962891-.6572266-1.4790039-1.2563477-2.3491211-1.7983398-.8701172-.5410156-1.769043-.9658203-2.6972656-1.2758789-.9277344-.309082-1.7597656-.4638672-2.4936523-.4638672-.6582031,0-1.2470703.0581055-1.769043.1738281-.5219727.1162109-.9570312.300293-1.3051758.5512695-.3476562.2519531-.6088867.5507812-.7827148.8989258-.1743164.3481445-.2612305.7348633-.2612305,1.1601562,0,.4257812.105957.831543.3188477,1.2177734.2124023.387207.512207.7158203.8994141.9858398.4248047.2324219,1.0527344.5029297,1.8847656.8120117.8310547.3100586,1.9619141.6582031,3.3930664,1.0439453,1.855957.503418,3.4311523,1.0639648,4.7270508,1.6821289,1.2949219.6191406,2.3291016,1.3339844,3.1030273,2.1459961.6567383.6962891,1.1401367,1.4892578,1.449707,2.3779297.309082.8901367.4643555,1.8759766.4643555,2.9580078,0,1.8950195-.5322266,3.5771484-1.5952148,5.0463867-1.0639648,1.4697266-2.5229492,2.6298828-4.3789062,3.4799805s-3.9438477,1.2758789-6.2641602,1.2758789Zm21.6914062-37.5258789c-1.5859375,0-2.8227539-.3959961-3.7119141-1.1889648-.8901367-.7924805-1.3339844-1.9042969-1.3339844-3.3354492,0-1.3139648.4541016-2.3867188,1.362793-3.21875.9082031-.8310547,2.1362305-1.2470703,3.6831055-1.2470703,1.5849609,0,2.8222656.3969727,3.7119141,1.1889648.8891602.7929688,1.3339844,1.8852539,1.3339844,3.2768555,0,1.3149414-.4550781,2.3979492-1.362793,3.2480469-.9091797.8510742-2.137207,1.2763672-3.6831055,1.2763672Zm-4.0600586,36.9458008v-30.6821289h8.2358398v30.6821289h-8.2358398Zm33.5820312.5800781c-1.3540039,0-2.6679688-.1938477-3.9443359-.5800781-1.2758789-.3862305-2.4355469-.9179688-3.4799805-1.5952148-1.0439453-.6757812-1.9135742-1.449707-2.6098633-2.3198242-.6958008-.8701172-1.1411133-1.769043-1.3339844-2.6967773l1.855957-.6962891-.4057617,7.1918945h-7.7719727V9.2113276h8.2939453v19.4296875l-1.6240234-.6376953c.2319336-.9282227.6757812-1.8271484,1.3339844-2.6972656.6567383-.8696289,1.487793-1.6430664,2.4941406-2.3198242,1.0048828-.6762695,2.1069336-1.2080078,3.3056641-1.5952148,1.1982422-.3857422,2.4360352-.5795898,3.7119141-.5795898,2.6679688,0,5.0551758.6865234,7.1630859,2.0585938,2.1069336,1.3730469,3.7602539,3.2583008,4.9589844,5.6552734,1.1982422,2.3979492,1.7983398,5.1430664,1.7983398,8.2358398,0,3.0942383-.590332,5.8388672-1.769043,8.2363281-1.1801758,2.3979492-2.8129883,4.2827148-4.9013672,5.6547852-2.0878906,1.3730469-4.4467773,2.059082-7.0756836,2.059082Zm-1.972168-7.0180664c1.5458984,0,2.8901367-.3769531,4.03125-1.1308594,1.1396484-.7543945,2.0390625-1.7983398,2.6967773-3.1323242.6572266-1.3339844.9858398-2.8896484.9858398-4.6689453,0-1.7397461-.3188477-3.2861328-.9570312-4.6396484-.6376953-1.3530273-1.5366336-2.3974609-2.6967773-3.1323242-1.1601562-.7338867-2.5141602-1.1020508-4.0600586-1.1020508-1.546875,0-2.8999023.3681641-4.0600586,1.1020508-1.159668.7348633-2.059082,1.7792969-2.6967773,3.1323242-.6381836,1.3535156-.9570312,2.8999023-.9570312,4.6396484,0,1.7792969.3188477,3.3349609.9570312,4.6689453.6376953,1.3339844,1.5371094,2.3779297,2.6967773,3.1323242,1.1601562.7539062,2.5131836,1.1308594,4.0600586,1.1308594Zm20.8212891,6.4379883V9.2113276h8.2363281v42.9199219h-8.2363281Zm29.4052734.5800781c-3.3256836,0-6.2348633-.6762695-8.7290039-2.0302734-2.4936523-1.3530273-4.4277344-3.2089844-5.7998047-5.5678711-1.3730469-2.3579102-2.059082-5.0649414-2.059082-8.1201172,0-2.3969727.3862305-4.5820312,1.1601562-6.5537109.7729492-1.972168,1.855957-3.6831055,3.2480469-5.1333008,1.3920898-1.449707,3.0449219-2.5708008,4.9589844-3.3637695,1.9140625-.7919922,3.9921875-1.1889648,6.2348633-1.1889648,2.0878906,0,4.0209961.3867188,5.800293,1.1601562,1.777832.7739258,3.3149414,1.8466797,4.6108398,3.21875,1.2949219,1.3730469,2.2910156,2.9970703,2.9868164,4.8720703.6962891,1.8759766,1.0053711,3.8959961.9282227,6.0610352l-.0581055,2.5517578h-24.6499023l-1.3339844-5.0458984h19.1977539l-.9277344,1.0439453v-1.2758789c-.078125-1.0439453-.4160156-1.980957-1.0151367-2.8129883-.6000977-.8310547-1.362793-1.4882812-2.2910156-1.972168-.9282227-.4829102-1.972168-.7246094-3.1318359-.7246094-1.7021484,0-3.1420898.3286133-4.3212891.9858398-1.1796875.6577148-2.0786133,1.6240234-2.6967773,2.8999023-.6191406,1.2758789-.9282227,2.8227539-.9282227,4.6401367,0,1.855957.3959961,3.4609375,1.1889648,4.8139648.7919922,1.3540039,1.9140625,2.4067383,3.3642578,3.1611328,1.449707.7539062,3.1611328,1.1308594,5.1328125,1.1308594,1.3530273,0,2.590332-.2119141,3.7119141-.6381836,1.1210938-.4248047,2.3203125-1.159668,3.5961914-2.2041016l3.9438477,5.5102539c-1.121582,1.0058594-2.3588867,1.8466797-3.7119141,2.5229492-1.3540039.6767578-2.7460938,1.1889648-4.1757812,1.5371094-1.4311523.3476562-2.8422852.5219727-4.234375.5219727Z"/><g id="Symbol_-_Purple_Gradient"><path class="cls-1" d="m45.2456059,22.6027536c-1.0911024,10.4557623-10.2327486,18.2272825-20.7452872,18.2272807h-4.047804v9.570007c0,5.3019285-4.2980623,9.5999908-9.5999908,9.5999908H3.3599854c-1.8556687,0-3.3599854-1.5043167-3.3599854-3.3599854v-19.7025146l5.0380685-7.0686343c.9118097-1.2793096,2.587965-1.7566996,4.0369945-1.1497867l2.8657142,1.2002785c1.4444817.6050081,3.1153774.12945,4.0247968-1.1455083l6.7172007-9.417163c.9071158-1.2717288,2.5743943-1.7450816,4.0144283-1.1397262l5.5198678,2.3204187c1.4430268.6066135,3.1137697.1319561,4.0223175-1.1427389l6.4594145-9.0625757c2.0248091,3.5597961,3.0145069,7.7887694,2.5468032,12.2706573Z"/><path class="cls-2" d="m3.2920959,28.8726296c.82329-1.1551271,2.0209115-2.0434967,3.4138697-2.3114381,1.0861554-.2089265,2.156905-.0992829,3.1472499.3155174l2.8649902,1.1999512c.1651001.0691528.3388672.104187.5164795.104187.4365845,0,.8488159-.2124634,1.1026611-.5683594l6.5942097-9.2447929c.8231505-1.154021,2.0204067-2.0410099,3.4124878-2.3083136,1.0821376-.2077892,2.1463585-.0989034,3.1282512.3138487l5.5198364,2.3204346c.1665649.0700684.3417969.1055298.5206909.1055298.4351807,0,.8456421-.2113647,1.0979614-.5653687l6.9192505-9.7077637C37.8272145,3.3644409,31.7802174,0,24.9450124,0H3.3599904C1.5043217,0,.000005,1.5043167.000005,3.3599854v30.1316528l3.2920909-4.6190085Z"/></g></g></g></svg>
