<svg xmlns="http://www.w3.org/2000/svg" viewBox="26 -29 120 60" width="120" height="60"><linearGradient id="A" gradientUnits="userSpaceOnUse" x1="173.867" y1="-72.65" x2="216.749" y2="-72.65"><stop offset="0" stop-color="#e96f0b"/><stop offset="1" stop-color="#f37901"/></linearGradient><g fill-rule="evenodd"><path d="M47.33 16H36.226c-1.364 0-2.468-1.104-2.468-2.468V8.208c0-1.364 1.104-2.468 2.468-2.468h7.013v-7.792c0-1.364 1.104-2.468 2.468-2.468H53.5v20.455h-6.17z" fill="#ffc517"/><path d="M61.3 16h-7.8v-27.532c0-1.364 1.104-2.468 2.468-2.468h5.325c1.364 0 2.468 1.104 2.468 2.468v25.065C63.693 14.896 62.6 16 61.3 16z" fill="#f57e02"/><path d="M216.708-72.65v32.646c0 5.713-4.625 10.338-10.338 10.338h-32.646v-85.968l42.984 42.984z" fill="url(#A)" transform="matrix(.238687 0 0 .238687 11.968065 23.081216)"/></g><g fill="#757575"><path d="M74.093 7.228l2.388 6.27h-4.627l2.24-6.27zm-.896-2.1l-5.224 13.73h1.94l1.343-3.73h5.82l1.343 3.73h1.94l-5.224-13.73h-1.94zm28.2 13.742h1.8V5.138h-1.8v13.73zm-18.35-8.07c.597-.896 1.8-1.642 2.985-1.642 2.388 0 3.582 1.642 3.582 4.03v5.82h-1.8v-5.522c0-1.94-1.045-2.687-2.388-2.687-1.493 0-2.537 1.493-2.537 2.836v5.224h-1.8V9.32h1.8l.15 1.493zm8.06 5.234c0-2.1 1.94-3.284 4.18-3.284 1.343 0 2.24.3 2.537.597v-.3c0-1.493-1.194-2.24-2.388-2.24-1.045 0-1.94.448-2.24 1.343l-1.642-.746c.3-.896 1.493-2.24 3.88-2.24 2.24 0 4.18 1.343 4.18 4.03v5.672h-1.642v-1.343h-.15c-.448.746-1.493 1.642-3.134 1.642-1.94 0-3.582-1.194-3.582-3.134m6.716-1.194s-.746-.597-2.24-.597c-1.8 0-2.537 1.045-2.537 1.8 0 1.045 1.045 1.493 1.94 1.493 1.343 0 2.836-1.194 2.836-2.687"/><path d="M105.735 23.05l2.1-4.925-3.73-8.657h1.8l2.836 6.567 2.836-6.567h1.8l-5.82 13.582h-1.8zm26.27-10.45c-.448-1.194-1.493-1.94-2.537-1.94-1.493 0-2.836 1.343-2.836 3.284s1.343 3.284 2.836 3.284c1.045 0 2.1-.746 2.537-1.8l1.493.896c-.746 1.642-2.24 2.687-4.03 2.687-2.537 0-4.627-2.24-4.627-5.075 0-2.985 2.1-5.075 4.627-5.075 1.8 0 3.284 1.045 4.03 2.687l-1.493 1.045z" fill-rule="evenodd"/><path d="M138.422 19.168c2.388 0 3.582-1.343 3.582-2.985 0-3.582-5.224-2.24-5.224-4.328 0-.746.597-1.194 1.642-1.194s2.1.448 2.537 1.194l1.045-1.045c-.597-.746-2.24-1.8-3.73-1.8-2.24 0-3.433 1.343-3.433 2.985 0 3.433 5.373 2.24 5.373 4.03 0 .896-.597 1.493-1.8 1.493s-1.8-.746-2.388-1.493L134.7 17.08c.896.896 2.24 2.1 3.73 2.1zm-17.015-.298h1.8V9.318h-1.8v9.552z"/><path d="M122.153 4.7c.746 0 1.194.597 1.194 1.194 0 .746-.597 1.194-1.194 1.194s-1.194-.597-1.194-1.194.597-1.194 1.194-1.194zm-2.537 12.687l.3 1.343h-1.8c-1.642 0-2.388-1.194-2.388-2.985V11.1h-1.8V9.3h1.8V6.482h1.8v2.836h2.1v1.8h-2.1v4.925c0 1.343 1.045 1.343 2.1 1.343z" fill-rule="evenodd"/><path d="M77.048-10.042v2.24h5.224c-.15 1.194-.597 2.1-1.194 2.687-.746.746-1.94 1.642-4.03 1.642-3.134 0-5.672-2.537-5.672-5.82 0-3.134 2.537-5.82 5.672-5.82 1.8 0 2.985.746 3.88 1.493l1.493-1.493c-1.343-1.194-2.985-2.24-5.373-2.24-4.328 0-8.06 3.582-8.06 7.9s3.73 7.9 8.06 7.9c2.388 0 4.18-.746 5.522-2.24 1.493-1.493 1.94-3.433 1.94-5.075 0-.448 0-1.045-.15-1.343h-7.313zm13.282-1.8c-2.836 0-5.075 2.1-5.075 5.075s2.24 5.075 5.075 5.075a5.03 5.03 0 0 0 5.075-5.075c0-2.985-2.24-5.075-5.075-5.075zm0 8.2c-1.493 0-2.836-1.343-2.836-3.134S88.837-9.9 90.33-9.9s2.837 1.2 2.837 3.13-1.343 3.134-2.836 3.134zm24.47-7.156c-.597-.597-1.493-1.194-2.836-1.194-2.537 0-4.776 2.24-4.776 5.075s2.24 5.075 4.776 5.075c1.194 0 2.24-.597 2.687-1.194h.15v.746c0 1.94-1.045 2.985-2.687 2.985-1.343 0-2.24-1.045-2.537-1.8l-1.94.746c.597 1.343 2.1 2.985 4.478 2.985 2.687 0 4.925-1.493 4.925-5.373V-12h-2.1v1.194zm-2.537 7.164c-1.493 0-2.687-1.343-2.687-3.134s1.194-3.134 2.687-3.134 2.687 1.343 2.687 3.134-1.194 3.134-2.687 3.134zm-10.897-8.2c-2.836 0-5.075 2.1-5.075 5.075s2.24 5.075 5.075 5.075a5.03 5.03 0 0 0 5.075-5.075c.15-2.985-2.24-5.075-5.075-5.075zm0 8.2c-1.493 0-2.836-1.343-2.836-3.134s1.343-3.134 2.836-3.134 2.836 1.194 2.836 3.134-1.343 3.134-2.836 3.134zM118.7-17.206h2.24v15.522h-2.24v-15.522zm8.358 13.582c-1.194 0-1.94-.597-2.537-1.493l6.866-2.836-.3-.597c-.448-1.194-1.8-3.284-4.328-3.284-2.687 0-4.776 2.1-4.776 5.075a5.03 5.03 0 0 0 5.075 5.075c2.388 0 3.73-1.493 4.328-2.24l-1.8-1.194c-.597.896-1.343 1.493-2.537 1.493zm-.15-6.27c.896 0 1.642.448 1.94 1.194l-4.627 1.94c0-2.24 1.493-3.134 2.687-3.134z"/></g></svg>