<?xml version="1.0" encoding="UTF-8"?> <svg xmlns="http://www.w3.org/2000/svg" xmlns:xlink="http://www.w3.org/1999/xlink" width="265.361" height="128.733" viewBox="0 0 265.361 128.733"><defs><clipPath id="clip-path"><rect width="265.361" height="128.733" fill="none"></rect></clipPath></defs><g id="Repeat_Grid_1" data-name="Repeat Grid 1" clip-path="url(#clip-path)"><g id="Group_51" data-name="Group 51" transform="translate(-595.244 -549.85)"><rect id="Rectangle_3" data-name="Rectangle 3" width="29.944" height="124.055" rx="14.972" transform="translate(673.313 549.85)" fill="#ffa800"></rect><rect id="Rectangle_4" data-name="Rectangle 4" width="29.944" height="77.689" rx="14.972" transform="translate(633.922 596.215)" fill="#f46d01"></rect><circle id="Ellipse_2" data-name="Ellipse 2" cx="14.616" cy="14.616" r="14.616" transform="translate(595.244 644.673)" fill="#f46d01"></circle><path id="Path_12" data-name="Path 12" d="M18.259-10.974H11.377V-8.8h4.247v6.231a8.8,8.8,0,0,1-3.6.558c-4.867,0-8.06-3.131-8.06-8.432,0-5.239,3.317-8.4,8.4-8.4a10.83,10.83,0,0,1,4.619.9l.651-2.2a12.917,12.917,0,0,0-5.208-.961c-7.006,0-11.284,4.557-11.315,10.788A10.749,10.749,0,0,0,4.03-2.542,10.74,10.74,0,0,0,11.842.217,19.465,19.465,0,0,0,18.259-.93ZM28.8-15.345c-4.154,0-7.44,2.945-7.44,7.967,0,4.743,3.131,7.719,7.192,7.719,3.627,0,7.471-2.418,7.471-7.967C36.022-12.214,33.108-15.345,28.8-15.345ZM28.737-13.3c3.224,0,4.5,3.224,4.5,5.766,0,3.379-1.953,5.828-4.557,5.828-2.666,0-4.557-2.48-4.557-5.766C24.118-10.323,25.513-13.3,28.737-13.3Zm17.081-2.046c-4.154,0-7.44,2.945-7.44,7.967,0,4.743,3.131,7.719,7.192,7.719,3.627,0,7.471-2.418,7.471-7.967C53.041-12.214,50.127-15.345,45.818-15.345ZM45.756-13.3c3.224,0,4.495,3.224,4.495,5.766,0,3.379-1.953,5.828-4.557,5.828-2.666,0-4.557-2.48-4.557-5.766C41.137-10.323,42.532-13.3,45.756-13.3ZM67.022-15,66.9-12.741h-.062a4.99,4.99,0,0,0-4.681-2.6c-3.441,0-6.758,2.883-6.758,7.967,0,4.154,2.666,7.316,6.386,7.316a5.356,5.356,0,0,0,4.774-2.511h.062V-.9c0,3.782-2.046,5.239-4.836,5.239a8.461,8.461,0,0,1-4.4-1.178L56.7,5.239a9.684,9.684,0,0,0,4.991,1.24,7.954,7.954,0,0,0,5.456-1.8c1.457-1.3,2.139-3.41,2.139-6.851v-8.711c0-1.829.062-3.038.124-4.123Zm-.434,8.618a4.746,4.746,0,0,1-.217,1.457,3.988,3.988,0,0,1-3.782,2.79c-2.945,0-4.433-2.449-4.433-5.394,0-3.472,1.86-5.673,4.464-5.673a3.93,3.93,0,0,1,3.813,2.883,3.885,3.885,0,0,1,.155,1.24ZM73.811,0h2.728V-22.01H73.811ZM93.186-7.006a10.289,10.289,0,0,0,.093-1.271c0-2.759-1.3-7.068-6.2-7.068-4.371,0-7.037,3.565-7.037,8.091S82.8.31,87.42.31a12.153,12.153,0,0,0,4.991-.93l-.465-1.953a9.865,9.865,0,0,1-4.154.775c-2.728,0-5.084-1.519-5.146-5.208ZM82.677-8.959c.217-1.891,1.426-4.433,4.185-4.433,3.069,0,3.813,2.7,3.782,4.433ZM13.144,21.428,15.376,28h2.883L11.129,7.106H7.874L.775,28h2.79l2.17-6.572ZM6.293,19.32l2.046-6.045c.4-1.271.744-2.542,1.054-3.782h.062c.31,1.209.62,2.449,1.085,3.813l2.046,6.014ZM21.142,28H23.87V18.979a3.922,3.922,0,0,1,.186-1.271,3.876,3.876,0,0,1,3.658-2.79c2.573,0,3.472,2.015,3.472,4.433V28h2.728V19.041c0-5.146-3.224-6.386-5.3-6.386a5.517,5.517,0,0,0-4.96,2.821h-.062L23.436,13H21.018c.093,1.24.124,2.511.124,4.061Zm27.993,0a21.125,21.125,0,0,1-.248-3.6V18.793c0-3.007-1.116-6.138-5.7-6.138a9.312,9.312,0,0,0-4.929,1.333l.62,1.8A7.476,7.476,0,0,1,42.78,14.67c3.069,0,3.41,2.232,3.41,3.472v.31c-5.8-.031-9.021,1.953-9.021,5.58a4.275,4.275,0,0,0,4.588,4.309,5.588,5.588,0,0,0,4.588-2.232h.093L46.655,28Zm-2.883-5.053a2.847,2.847,0,0,1-.155.868,3.733,3.733,0,0,1-3.627,2.511,2.414,2.414,0,0,1-2.573-2.6c0-2.914,3.379-3.441,6.355-3.379ZM53.289,28h2.728V5.99H53.289Zm5.332-15L64.17,26.822a2.379,2.379,0,0,1,.186.713,1.958,1.958,0,0,1-.217.651,8.271,8.271,0,0,1-2.294,3.038,7.216,7.216,0,0,1-2.387,1.333l.682,2.294a7.392,7.392,0,0,0,3.348-1.767c1.86-1.612,3.193-4.247,5.146-9.393L72.726,13H69.843l-2.976,8.8c-.372,1.085-.682,2.232-.961,3.131h-.062c-.248-.9-.62-2.077-.961-3.069L61.6,13ZM75.826,9.4V13H73.5v2.077h2.325v8.184c0,1.767.279,3.1,1.054,3.906a3.78,3.78,0,0,0,2.945,1.147,6.678,6.678,0,0,0,2.418-.372l-.124-2.046a6.069,6.069,0,0,1-1.581.186c-1.519,0-2.046-1.054-2.046-2.914V15.073H82.4V13H78.492V8.687ZM88.195,28V13H85.467V28ZM86.831,7.075A1.662,1.662,0,0,0,85.126,8.78a1.69,1.69,0,0,0,3.379,0A1.619,1.619,0,0,0,86.831,7.075ZM102.951,25.4a7.75,7.75,0,0,1-3.348.744c-2.976,0-5.208-2.139-5.208-5.611,0-3.131,1.86-5.673,5.3-5.673a6.326,6.326,0,0,1,3.162.713l.62-2.108a9.119,9.119,0,0,0-3.782-.775,7.624,7.624,0,0,0-8.06,7.967c0,4.588,2.945,7.657,7.471,7.657a10.048,10.048,0,0,0,4.309-.868Zm2.6,1.891a8.557,8.557,0,0,0,4.216,1.023c3.565,0,5.611-1.86,5.611-4.495,0-2.232-1.333-3.534-3.937-4.526-1.953-.744-2.852-1.3-2.852-2.542,0-1.116.9-2.046,2.511-2.046a5.839,5.839,0,0,1,3.069.868l.682-1.984a7.489,7.489,0,0,0-3.689-.93c-3.224,0-5.177,1.984-5.177,4.4,0,1.8,1.271,3.286,3.968,4.247,2.015.744,2.79,1.457,2.79,2.759,0,1.24-.93,2.232-2.914,2.232a7.149,7.149,0,0,1-3.6-1.085ZM135.594,28V22.513h2.821V20.374h-2.821V7.85h-2.945l-8.99,12.865v1.8h9.362V28Zm-9.176-7.626v-.062l4.929-6.851c.558-.93,1.054-1.8,1.674-2.976h.093q-.093,1.581-.093,3.162v6.727Z" transform="translate(722.19 643.732)" fill="gray"></path></g></g></svg> 