<svg xmlns="http://www.w3.org/2000/svg" width="1000" height="1000"><defs><radialGradient id="a" cx="79.131%" cy="87.645%" r="96.99%" fx="79.131%" fy="87.645%"><stop offset="0%" stop-color="#2440E6"/><stop offset="100%" stop-color="#5661B3"/></radialGradient><radialGradient id="b" cx="0%" cy="30.22%" r="62.269%" fx="0%" fy="30.22%" gradientTransform="scale(1 .72252) rotate(61.735 -.097 .36)"><stop offset="0%" stop-color="#6574CD" stop-opacity=".5"/><stop offset="100%" stop-color="#6574CD"/></radialGradient></defs><g fill="none" fill-rule="evenodd"><path d="M0 0h1000v1000H0z"/><g transform="matrix(1 0 0 -1 126.303 1000)"><circle cx="373.697" cy="624.069" r="373.449" fill="url(#a)"/><path fill="url(#b)" fill-rule="nonzero" d="M309.677 993.322c-77.17-13.4-142.183-46.154-196.03-98.76C58.314 840.47 24.07 777.443 7.445 698.783l-5.707-26.8-.744-335.484L.248.766h6.948c3.97 0 16.625 1.241 28.04 2.482 97.518 11.91 180.397 70.967 225.558 160.546 11.414 22.828 19.603 49.131 25.31 81.885 4.715 27.792 4.963 36.973 4.219 181.886l-.745 152.606 5.955 14.888c8.19 20.348 30.77 42.928 51.117 51.117l14.888 5.955 138.958.248c76.427 0 143.425.993 148.636 1.985 24.317 4.715 50.372 25.062 60.794 47.643 2.977 6.204 6.947 18.362 8.684 26.55 2.73 13.649 2.482 17.37-1.488 32.755-12.407 45.658-56.08 108.933-100.745 145.906-50.62 41.935-106.451 69.975-166.75 84.12-31.761 7.195-103.721 8.436-139.95 1.984Z"/></g></g></svg>