<?xml version="1.0" encoding="UTF-8"?><svg id="Layer_2" xmlns="http://www.w3.org/2000/svg" xmlns:xlink="http://www.w3.org/1999/xlink" viewBox="0 0 245.7633795 60.0000321"><defs><style>.cls-1{fill:url(#New_Gradient_Swatch_1);}.cls-1,.cls-2,.cls-3{stroke-width:0px;}.cls-2{fill:url(#New_Gradient_Swatch_1-2);}.cls-3{fill:#fff;}</style><linearGradient id="New_Gradient_Swatch_1" x1="14.8413403" y1="22.5436904" x2="27.4731407" y2="44.6493411" gradientUnits="userSpaceOnUse"><stop offset="0" stop-color="#909cf7"/><stop offset="1" stop-color="#4b38d8"/></linearGradient><linearGradient id="New_Gradient_Swatch_1-2" x1="7.9837957" y1="-1.3582919" x2="21.0009873" y2="21.4217935" xlink:href="#New_Gradient_Swatch_1"/></defs><g id="Plausible_-_Branding"><g id="Gradient_Logo_-_Purple_Gradient_on_Black"><path id="Wordmark_-_White" class="cls-3" d="M61.4185895,46.5169346V15.9683071h12.9617383c1.8325723,0,3.4755682.4294862,4.9311919,1.2873563,1.4541542.8586049,2.6107175,2.0294967,3.468955,3.5130426.8582375,1.4839133,1.2873563,3.157403,1.2873563,5.0189996,0,1.8913557-.4291188,3.5935023-1.2873563,5.1057051-.8582375,1.513305-2.0148008,2.713221-3.468955,3.6004829-1.4556238.8879966-3.0986196,1.3310765-4.9311919,1.3310765h-6.4154726v10.6919645h-6.5462657ZM67.8774149,29.9334044h5.7607726c.6980528,0,1.3233612-.1814937,1.8766598-.5455834.5525639-.3633549.9963785-.8508896,1.3307091-1.4618695s.5018632-1.3094001.5018632-2.0948932-.1675327-1.4684827-.5018632-2.0508056c-.3343306-.5819556-.7781452-1.0474466-1.3307091-1.3968404-.5532987-.3490264-1.178607-.5235396-1.8766598-.5235396h-5.7607726v8.0735317ZM88.21353,46.5169346V14.2228077h6.1972393v32.2941269h-6.1972393ZM108.0264728,46.9534013c-1.9200126,0-3.6511835-.523907-5.192778-1.5709862-1.5423293-1.0474466-2.7650239-2.4725765-3.6658794-4.2768593-.9023251-1.803548-1.3534876-3.8690495-1.3534876-6.1972393,0-2.3270876.4585105-4.3925891,1.3755314-6.1968719.9162861-1.803548,2.1602897-3.2143494,3.7312759-4.2331391,1.5709862-1.0180549,3.3602057-1.527266,5.3676586-1.527266,1.1345195,0,2.1742508.1675327,3.1206634.5018632.9449431.3346979,1.7737889.792841,2.4865376,1.3744292.7127486.582323,1.316748,1.2513515,1.8119981,2.0074529.4937805.7572036.8435417,1.5713536,1.0470792,2.4439196l-1.3094001-.2182333v-5.6296121h6.1538865v23.0860757h-6.2413268v-5.5425392l1.3968404-.1307931c-.2329292.8148848-.6106125,1.5860494-1.1352543,2.3131265-.5231722.7274445-1.1712591,1.3744292-1.9413216,1.9420564-.771532.5672597-1.6371175,1.0184223-2.5967564,1.3527528-.9596389.3339632-1.978796.5018632-3.0552669.5018632ZM109.7282521,41.5853752c1.1639112,0,2.1823335-.2759146,3.0552669-.8288459.8729334-.5525639,1.5489424-1.3310765,2.0294967-2.3348029.4798195-1.0037264.7200966-2.1746182.7200966-3.51341,0-1.3090327-.2402771-2.4578806-.7200966-3.4472786-.4805542-.9890306-1.1565633-1.7675432-2.0294967-2.3348029-.8729334-.5676271-1.8913557-.851257-3.0552669-.851257-1.1345195,0-2.130898.2836299-2.9891356.851257-.8582375.5672597-1.5342466,1.3457723-2.0294967,2.3348029-.4945153.989398-.7414056,2.1382459-.7414056,3.4472786,0,1.3387918.2468903,2.5096835.7414056,3.51341.4952501,1.0037264,1.1712591,1.782239,2.0294967,2.3348029.8582375.5529313,1.8546161.8288459,2.9891356.8288459ZM134.4290341,46.9534013c-1.6870834,0-3.1353593-.3710702-4.3426232-1.1128431s-2.1382459-1.803548-2.7922112-3.1856925c-.6554348-1.3817771-.9816827-3.0475516-.9816827-4.9969559v-14.2270509h6.1965045v13.2233244c0,1.0474466.1741458,1.9571196.523907,2.7275495.3490264.7711646.8435417,1.3604682,1.4835459,1.7675432.6400042.4074424,1.4247625.6109799,2.3564793.6109799.6686611,0,1.2873563-.1091167,1.8546161-.32735s1.061775-.5305201,1.4842807-.9383299c.4210361-.407075.7480187-.8872618.9816827-1.4401931.2321944-.5521965.3490264-1.148848.3490264-1.7892195v-13.8343043h6.1965045v23.0860757h-5.8908308l-.2182333-4.7566787,1.1345195-.523907c-.3490264,1.0768383-.9317168,2.051173-1.7458668,2.9241064-.81415.872566-1.7884848,1.5566577-2.923739,2.051173-1.1345195.4941479-2.3564793.7417729-3.6658794.7417729ZM160.8749481,46.9534013c-2.1536766,0-4.0656065-.3567417-5.7387288-1.069123-1.6731223-.7127486-3.0185273-1.6947987-4.0362148-2.9457828l3.8833779-3.316853c.8729334.9600063,1.8612292,1.651446,2.9678266,2.0728494,1.1051278.4221382,2.2102556.6330237,3.316853.6330237.4364667,0,.8361938-.0507007,1.199916-.1528368.3637222-.1017688.6767438-.2468903.9383299-.4364667.2615861-.1888417.4585105-.4214035.5893035-.6980528.1307931-.276282.1961896-.5742403.1961896-.8946098,0-.6396368-.2540801-1.147567-.7854931-1.4839133-.2866977-.181459-.7421403-.3710702-1.3534876-.5893035-.6106125-.2182333-1.3961056-.4581431-2.3557445-.7200966-1.4842807-.3776833-2.7429801-.8214979-3.7753635-1.3310765-1.0331181-.5084764-1.8546161-1.0834514-2.4659634-1.723823-.5231722-.6106125-.9236341-1.2722931-1.199916-1.9854091-.2770167-.7127486-.4144229-1.5055897-.4144229-2.3785231,0-1.0474466.2329292-2.000105.6980528-2.8583425.4651236-.8578702,1.1132105-1.59303,1.9420564-2.2040099s1.7818716-1.0834514,2.8583425-1.4181494c1.0757361-.3343306,2.2109904-.5018632,3.4042933-.5018632,1.1925681,0,2.3564793.1458563,3.4909988.4360993,1.1345195.2913452,2.1889466.7057681,3.1640162,1.2440036.9743348.5386028,1.8252244,1.1712591,2.5526689,1.8983362l-3.3161182,3.6658794c-.523907-.4945153-1.1132105-.9453104-1.7671758-1.3531202-.6554348-.407075-1.3314439-.7267097-2.0294967-.9600063-.6980528-.2325618-1.3240959-.3490264-1.8766598-.3490264-.4952501,0-.9383299.0437201-1.3314439.1307931-.3923792.0874403-.7200966.2259487-.9816827.4147903-.2615861.1895764-.4585105.4144229-.5893035.6763764s-.1961896.5529313-.1961896.8729334c0,.3203695.0800924.6256757.2402771.9162861.15945.2913452.3850312.5386028.676009.7417729.3203695.1748806.7921062.3784181,1.4181494.6109799.6260431.2332966,1.4769328.4952501,2.5534037.7854931,1.3968404.3787855,2.5813258.8005563,3.5571301,1.2656799.9743348.4658584,1.7517451,1.0037264,2.3344355,1.6147063.4945153.523907.8575028,1.1205584,1.0911667,1.7892195.2321944.6697633.3490264,1.4115362.3490264,2.2256862,0,1.4258647-.4004619,2.6915446-1.199916,3.7970398-.8009237,1.1058626-1.8987036,1.978796-3.2948092,2.6184328-1.3968404.6396368-2.9678266.9600063-4.7136934.9600063ZM177.1961574,18.7179003c-1.1933029,0-2.1242849-.2979583-2.792946-.8946098-.6701307-.596284-1.0037264-1.4328452-1.0037264-2.5096835,0-.9886632.3416785-1.7958327,1.0257702-2.4218758.683357-.6253084,1.606991-.9383299,2.7709022-.9383299,1.1925681,0,2.1235501.2986931,2.792946.8946098.6686611.5966514,1.0037264,1.4185168,1.0037264,2.465596,0,.989398-.3424133,1.8042828-1.0257702,2.4439196-.683357.6403716-1.6077258.9603737-2.7709022.9603737ZM174.1416253,46.5169346v-23.0860757h6.1965045v23.0860757h-6.1965045ZM199.4096671,46.9534013c-1.0191571,0-2.0074529-.1458563-2.9685614-.4364667-.9596389-.2906104-1.8325723-.6907049-2.6180654-1.2002834-.7854931-.5084764-1.4394584-1.0907993-1.9641001-1.7454994-.5231722-.6547-.8582375-1.3310765-1.0037264-2.0291293l1.3968404-.523907-.3049389,5.4113788h-5.8482129V14.2228077h6.240592v14.61943l-1.2219598-.4798195c.1741458-.6984202.5084764-1.3747966,1.0037264-2.0294967.4945153-.6543327,1.1190889-1.2362882,1.8766598-1.7454994.7561014-.5088438,1.5849473-.9089382,2.4872723-1.2002834.9015903-.290243,1.8325723-.4360993,2.792946-.4360993,2.0074529,0,3.8040204.5165591,5.3897024,1.5489424,1.585682,1.0331181,2.8289508,2.4516349,3.7312759,4.2551829.9015903,1.8042828,1.3534876,3.8697843,1.3534876,6.1968719,0,2.3281898-.4445494,4.3933239-1.3314439,6.1972393-.8876292,1.8042828-2.1162022,3.2224322-3.6879232,4.2548155-1.5709862,1.0331181-3.3455099,1.5493098-5.3235711,1.5493098ZM197.9253864,41.6728155c1.1631764,0,2.1749856-.2836299,3.0332231-.8508896.8575028-.5676271,1.5342466-1.3531202,2.0294967-2.3568467.4937805-1.0037264.7414056-2.1742508.7414056-3.5130426,0-1.3090327-.2402771-2.4725765-.7200966-3.4909988-.4798195-1.0180549-1.1558285-1.8039154-2.0287619-2.3568467-.8729334-.5521965-1.8920905-.8292132-3.0552669-.8292132-1.1639112,0-2.1823335.2770167-3.0552669.8292132-.8721986.5529313-1.5489424,1.3387918-2.0287619,2.3568467-.4798195,1.0184223-.7200966,2.1819661-.7200966,3.4909988,0,1.3387918.2402771,2.5093161.7200966,3.5130426.4798195,1.0037264,1.1565633,1.7892195,2.0287619,2.3568467.8729334.5672597,1.8913557.8508896,3.0552669.8508896ZM213.5918956,46.5169346V14.2228077h6.1972393v32.2941269h-6.1972393ZM235.7172302,46.9534013c-2.502703,0-4.6909148-.5088438-6.5675747-1.5276334-1.8766598-1.0180549-3.3315488-2.4145279-4.364667-4.189419-1.0331181-1.7741563-1.5489424-3.8110009-1.5489424-6.109799,0-1.803548.2909778-3.447646.8729334-4.9311919.5819556-1.4839133,1.3961056-2.7712696,2.4439196-3.8624364,1.047814-1.0907993,2.2910828-1.934341,3.7312759-2.5309925,1.4401931-.5959167,3.0038314-.8946098,4.6909148-.8946098,1.5709862,0,3.0258752.2909778,4.364667.8729334,1.3373222.582323,2.4938855,1.3894925,3.4696898,2.4218758.9743348,1.0331181,1.723823,2.2550779,2.2469952,3.6658794.523907,1.4115362.7568362,2.9314544.6980528,4.5604892l-.0433528,1.9200126h-18.5468955l-1.0037264-3.7966724h14.4445494l-.6980528.7854931v-.9600063c-.0587834-.7854931-.3130216-1.4905264-.7641841-2.1165696-.4511625-.6253084-1.0250354-1.1198236-1.723823-1.4839133-.6980528-.3633549-1.4835459-.545216-2.3557445-.545216-1.281478,0-2.364562.2472576-3.2521913.7417729-.8876292.4948827-1.5636383,1.2219598-2.0287619,2.1819661-.4658584.9600063-.6987876,2.1239175-.6987876,3.4913662,0,1.396473.2983257,2.6041043.8949772,3.6221592.5959167,1.0187897,1.4401931,1.8108959,2.5313599,2.3785231,1.0911667.5672597,2.3785231.8508896,3.862069.8508896,1.0176875,0,1.9494043-.15945,2.792946-.4801868.8435417-.3196347,1.7458668-.872566,2.7055057-1.6584265l2.9678266,4.1460662c-.8442765.7568362-1.7745237,1.3894925-2.792946,1.8983362-1.0184223.5092111-2.0662363.8946098-3.1419724,1.1565633-1.0772057.2615861-2.1382459.3927465-3.1860599.3927465Z"/><g id="Symbol_-_Purple_Gradient"><path class="cls-1" d="M45.2456059,22.6027536c-1.0911024,10.4557623-10.2327486,18.2272825-20.7452872,18.2272807h-4.047804v9.570007c0,5.3019285-4.2980623,9.5999908-9.5999908,9.5999908H3.3599854c-1.8556687,0-3.3599854-1.5043167-3.3599854-3.3599854v-19.7025146l5.0380685-7.0686343c.9118097-1.2793096,2.587965-1.7566996,4.0369945-1.1497867l2.8657142,1.2002785c1.4444817.6050081,3.1153774.12945,4.0247968-1.1455083l6.7172007-9.417163c.9071158-1.2717288,2.5743943-1.7450816,4.0144283-1.1397262l5.5198678,2.3204187c1.4430268.6066135,3.1137697.1319561,4.0223175-1.1427389l6.4594145-9.0625757c2.0248091,3.5597961,3.0145069,7.7887694,2.5468032,12.2706573Z"/><path class="cls-2" d="M3.2920959,28.8726296c.82329-1.1551271,2.0209115-2.0434967,3.4138697-2.3114381,1.0861554-.2089265,2.156905-.0992829,3.1472499.3155174l2.8649902,1.1999512c.1651001.0691528.3388672.104187.5164795.104187.4365845,0,.8488159-.2124634,1.1026611-.5683594l6.5942097-9.2447929c.8231505-1.154021,2.0204067-2.0410099,3.4124878-2.3083136,1.0821376-.2077892,2.1463585-.0989034,3.1282512.3138487l5.5198364,2.3204346c.1665649.0700684.3417969.1055298.5206909.1055298.4351807,0,.8456421-.2113647,1.0979614-.5653687l6.9192505-9.7077637C37.8272145,3.3644409,31.7802174,0,24.9450124,0H3.3599904C1.5043217,0,.000005,1.5043167.000005,3.3599854v30.1316528l3.2920909-4.6190085Z"/></g></g></g></svg>
