<?xml version="1.0" encoding="UTF-8"?><svg id="Layer_2" xmlns="http://www.w3.org/2000/svg" xmlns:xlink="http://www.w3.org/1999/xlink" viewBox="0 0 245.7709455 60.0000321"><defs><style>.cls-1{fill:url(#New_Gradient_Swatch_1);}.cls-1,.cls-2,.cls-3{stroke-width:0px;}.cls-2{fill:url(#New_Gradient_Swatch_1-2);}.cls-3{fill:#1f2961;}</style><linearGradient id="New_Gradient_Swatch_1" x1="14.8413403" y1="22.5436904" x2="27.4731407" y2="44.6493411" gradientUnits="userSpaceOnUse"><stop offset="0" stop-color="#909cf7"/><stop offset="1" stop-color="#4b38d8"/></linearGradient><linearGradient id="New_Gradient_Swatch_1-2" x1="7.9837957" y1="-1.3582919" x2="21.0009873" y2="21.4217935" xlink:href="#New_Gradient_Swatch_1"/></defs><g id="Plausible_-_Branding"><g id="Gradient_Logo_-_Purple_Gradient_on_White"><path id="Wordmark_-_Black" class="cls-3" d="M61.4259774,46.5168043V15.9681768h12.9613709c1.8329397,0,3.4763029.4294862,4.9315593,1.2873563,1.4545216.8586049,2.6107175,2.0294967,3.4693224,3.5130426.8578702,1.4839133,1.2873563,3.157403,1.2873563,5.0189996,0,1.8913557-.4294862,3.5935023-1.2873563,5.1057051-.8586049,1.513305-2.0148008,2.713221-3.4693224,3.6004829-1.4552564.8879966-3.0986196,1.3310765-4.9315593,1.3310765h-6.4151052v10.6919645h-6.5462657ZM67.8848028,29.9332741h5.7607726c.6980528,0,1.3233612-.1814937,1.8766598-.5455834.5521965-.3633549.9960111-.8508896,1.3307091-1.4618695.3343306-.6109799.5022306-1.3094001.5022306-2.0948932s-.1679001-1.4684827-.5022306-2.0508056c-.3346979-.5819556-.7785126-1.0474466-1.3307091-1.3968404-.5532987-.3490264-1.178607-.5235396-1.8766598-.5235396h-5.7607726v8.0735317ZM88.2212853,46.5168043V14.2226774h6.1972393v32.2941269h-6.1972393ZM108.0342281,46.953271c-1.92038,0-3.6515509-.523907-5.1931454-1.5709862-1.5426967-1.0474466-2.7646565-2.4725765-3.6658794-4.2768593-.9023251-1.803548-1.3531202-3.8690495-1.3531202-6.1972393,0-2.3270876.4585105-4.3925891,1.3747966-6.1968719.9166535-1.803548,2.1602897-3.2143494,3.7312759-4.2331391,1.5709862-1.0180549,3.3605731-1.527266,5.368026-1.527266,1.1345195,0,2.1742508.1675327,3.120296.5018632.9449431.3346979,1.7741563.792841,2.4872723,1.3744292.7127486.582323,1.3160132,1.2513515,1.8112633,2.0074529.4941479.7572036.8435417,1.5713536,1.0474466,2.4439196l-1.3094001-.2182333v-5.6296121h6.1535191v23.0860757h-6.240592v-5.5425392l1.396473-.1307931c-.2332966.8148848-.6109799,1.5860494-1.1348869,2.3131265-.5235396.7274445-1.1712591,1.3744292-1.9420564,1.9420564-.7711646.5672597-1.6363827,1.0184223-2.596389,1.3527528-.9600063.3339632-1.978796.5018632-3.0548995.5018632ZM109.7360074,41.5852449c1.1635438,0,2.1823335-.2759146,3.0548995-.8288459.8729334-.5525639,1.5493098-1.3310765,2.0294967-2.3348029.4798195-1.0037264.7200966-2.1746182.7200966-3.51341,0-1.3090327-.2402771-2.4578806-.7200966-3.4472786-.4801868-.9890306-1.1565633-1.7675432-2.0294967-2.3348029-.872566-.5676271-1.8913557-.851257-3.0548995-.851257-1.1345195,0-2.1312654.2836299-2.9891356.851257-.8586049.5672597-1.5349814,1.3457723-2.0294967,2.3348029-.4948827.989398-.7417729,2.1382459-.7417729,3.4472786,0,1.3387918.2468903,2.5096835.7417729,3.51341.4945153,1.0037264,1.1708917,1.782239,2.0294967,2.3348029.8578702.5529313,1.8546161.8288459,2.9891356.8288459ZM134.436422,46.953271c-1.6874508,0-3.1353593-.3710702-4.3422558-1.1128431-1.2076313-.7417729-2.1382459-1.803548-2.792946-3.1856925-.6547-1.3817771-.9816827-3.0475516-.9816827-4.9969559v-14.2270509h6.1968719v13.2233244c0,1.0474466.1745132,1.9571196.5235396,2.7275495.3493938.7711646.8435417,1.3604682,1.4839133,1.7675432.6396368.4074424,1.4251299.6109799,2.3564793.6109799.6690285,0,1.2873563-.1091167,1.8549835-.32735.5672597-.2182333,1.0614077-.5305201,1.4835459-.9383299.4214035-.407075.7487535-.8872618.9820501-1.4401931.2325618-.5521965.3490264-1.148848.3490264-1.7892195v-13.8343043h6.1968719v23.0860757h-5.8911982l-.2182333-4.7566787,1.1345195-.523907c-.3490264,1.0768383-.9313494,2.051173-1.7454994,2.9241064-.8148848.872566-1.7892195,1.5566577-2.9241064,2.051173-1.1345195.4941479-2.3564793.7417729-3.6658794.7417729ZM160.882336,46.953271c-2.1533092,0-4.0659739-.3567417-5.7387288-1.069123-1.6734897-.7127486-3.0185273-1.6947987-4.0365822-2.9457828l3.8837453-3.316853c.8729334.9600063,1.8615966,1.651446,2.9678266,2.0728494,1.1051278.4221382,2.210623.6330237,3.3164856.6330237.4364667,0,.8361938-.0507007,1.2002834-.1528368.3633549-.1017688.6763764-.2468903.9383299-.4364667.2615861-.1888417.4581431-.4214035.5889361-.6980528.1311604-.276282.196557-.5742403.196557-.8946098,0-.6396368-.2536738-1.1476376-.7854931-1.4839133-.2870439-.1815012-.7421403-.3710702-1.3531202-.5893035s-1.396473-.4581431-2.3564793-.7200966c-1.4839133-.3776833-2.7426127-.8214979-3.7749961-1.3310765-1.0331181-.5084764-1.8546161-1.0834514-2.465596-1.723823-.5235396-.6106125-.9240015-1.2722931-1.2002834-1.9854091-.2766493-.7127486-.4144229-1.5055897-.4144229-2.3785231,0-1.0474466.2325618-2.000105.6980528-2.8583425.4651236-.8578702,1.1128431-1.59303,1.9420564-2.2040099s1.7818716-1.0834514,2.8587099-1.4181494c1.0757361-.3343306,2.210623-.5018632,3.4039259-.5018632,1.1925681,0,2.3564793.1458563,3.4913662.4360993,1.1345195.2913452,2.1885792.7057681,3.1636488,1.2440036.9747021.5386028,1.8255918,1.1712591,2.5530363,1.8983362l-3.3164856,3.6658794c-.523907-.4945153-1.1128431-.9453104-1.7675432-1.3531202-.6547-.407075-1.3310765-.7267097-2.0294967-.9600063-.6980528-.2325618-1.3240959-.3490264-1.8762924-.3490264-.4952501,0-.9383299.0437201-1.3310765.1307931-.3927465.0874403-.7200966.2259487-.9820501.4147903-.2615861.1895764-.4581431.4144229-.5889361.6763764-.1311604.2619535-.196557.5529313-.196557.8729334,0,.3203695.079725.6256757.2399097.9162861.1598174.2913452.3853986.5386028.6767438.7417729.3196347.1748806.7921062.3784181,1.4181494.6109799.6253084.2332966,1.476198.4952501,2.5530363.7854931,1.396473.3787855,2.5816932.8005563,3.5567627,1.2656799.9743348.4658584,1.7524799,1.0037264,2.3348029,1.6147063.4941479.523907.8578702,1.1205584,1.0907993,1.7892195.2325618.6697633.3493938,1.4115362.3493938,2.2256862,0,1.4258647-.4004619,2.6915446-1.2002834,3.7970398-.8005563,1.1058626-1.8983362,1.978796-3.2948092,2.6184328s-2.9674592.9600063-4.713326.9600063ZM177.2035453,18.71777c-1.1933029,0-2.1239175-.2979583-2.792946-.8946098-.6697633-.596284-1.0037264-1.4328452-1.0037264-2.5096835,0-.9886632.3416785-1.7958327,1.0254028-2.4218758.683357-.6253084,1.6073584-.9383299,2.7712696-.9383299,1.1925681,0,2.1235501.2986931,2.792946.8946098.6690285.5966514,1.0037264,1.4185168,1.0037264,2.465596,0,.989398-.3424133,1.8042828-1.0254028,2.4439196-.6840917.6403716-1.6080932.9603737-2.7712696.9603737ZM174.1486458,46.5168043v-23.0860757h6.1968719v23.0860757h-6.1968719ZM199.4166876,46.953271c-1.0187897,0-2.0074529-.1458563-2.9678266-.4364667-.9600063-.2906104-1.8325723-.6907049-2.6184328-1.2002834-.7854931-.5084764-1.4398257-1.0907993-1.9637327-1.7454994-.5235396-.6547-.8586049-1.3310765-1.0037264-2.0291293l1.396473-.523907-.3053063,5.4113788h-5.8478455V14.2226774h6.240592v14.61943l-1.2219598-.4798195c.1745132-.6984202.5084764-1.3747966,1.0037264-2.0294967.4941479-.6543327,1.1194563-1.2362882,1.8766598-1.7454994.7561014-.5088438,1.5853146-.9089382,2.4872723-1.2002834.9015903-.290243,1.8329397-.4360993,2.792946-.4360993,2.0074529,0,3.803653.5165591,5.3897024,1.5489424,1.5853146,1.0331181,2.8293182,2.4516349,3.7312759,4.2551829.9015903,1.8042828,1.3531202,3.8697843,1.3531202,6.1968719,0,2.3281898-.444182,4.3933239-1.3310765,6.1972393-.8879966,1.8042828-2.1165696,3.2224322-3.6879232,4.2548155-1.5709862,1.0331181-3.3458773,1.5493098-5.3239385,1.5493098ZM197.9327743,41.6726852c1.1631764,0,2.1746182-.2836299,3.0332231-.8508896.8575028-.5676271,1.5342466-1.3531202,2.0291293-2.3568467.4945153-1.0037264.7417729-2.1742508.7417729-3.5130426,0-1.3090327-.2399097-2.4725765-.7200966-3.4909988-.4798195-1.0180549-1.1562053-1.8039154-2.0291293-2.3568467-.8729334-.5521965-1.8917231-.8292132-3.0548995-.8292132-1.1639112,0-2.1819661.2770167-3.0548995.8292132-.872566.5529313-1.5493098,1.3387918-2.0291293,2.3568467-.4801868,1.0184223-.7200966,2.1819661-.7200966,3.4909988,0,1.3387918.2399097,2.5093161.7200966,3.5130426.4798195,1.0037264,1.1565633,1.7892195,2.0291293,2.3568467.8729334.5672597,1.8909883.8508896,3.0548995.8508896ZM213.5992835,46.5168043V14.2226774h6.1972393v32.2941269h-6.1972393ZM235.7246181,46.953271c-2.5023356,0-4.6912822-.5088438-6.5679421-1.5276334-1.8762924-1.0180549-3.3315488-2.4145279-4.3639322-4.189419-1.0331181-1.7741563-1.5493098-3.8110009-1.5493098-6.109799,0-1.803548.2906104-3.447646.8729334-4.9311919.5815882-1.4839133,1.396473-2.7712696,2.4439196-3.8624364,1.0474466-1.0907993,2.2910828-1.934341,3.7312759-2.5309925,1.4401931-.5959167,3.0038314-.8946098,4.6912822-.8946098,1.5709862,0,3.0255078.2909778,4.3642996.8729334,1.3376896.582323,2.4942529,1.3894925,3.4693224,2.4218758.9743348,1.0331181,1.723823,2.2550779,2.2473626,3.6658794.523907,1.4115362.7564688,2.9314544.6984202,4.5604892l-.0437201,1.9200126h-18.5472629l-1.0037264-3.7966724h14.4449168l-.6980528.7854931v-.9600063c-.0587834-.7854931-.3130216-1.4905264-.7638167-2.1165696-.4515299-.6253084-1.0254028-1.1198236-1.723823-1.4839133-.6984202-.3633549-1.4839133-.545216-2.3564793-.545216-1.2807432,0-2.3641946.2472576-3.2514565.7417729-.8876292.4948827-1.5640057,1.2219598-2.0291293,2.1819661-.4658584.9600063-.6984202,2.1239175-.6984202,3.4913662,0,1.396473.2979583,2.6041043.8946098,3.6221592.5959167,1.0187897,1.4401931,1.8108959,2.5313599,2.3785231,1.0907993.5672597,2.3785231.8508896,3.862069.8508896,1.0180549,0,1.9490369-.15945,2.792946-.4801868.8435417-.3196347,1.7458668-.872566,2.7058731-1.6584265l2.9674592,4.1460662c-.8439091.7568362-1.7748911,1.3894925-2.792946,1.8983362-1.0187897.5092111-2.0662363.8946098-3.1419724,1.1565633-1.0768383.2615861-2.1386133.3927465-3.1860599.3927465Z"/><g id="Symbol_-_Purple_Gradient"><path class="cls-1" d="M45.2456059,22.6027536c-1.0911024,10.4557623-10.2327486,18.2272825-20.7452872,18.2272807h-4.047804v9.570007c0,5.3019285-4.2980623,9.5999908-9.5999908,9.5999908H3.3599854c-1.8556687,0-3.3599854-1.5043167-3.3599854-3.3599854v-19.7025146l5.0380685-7.0686343c.9118097-1.2793096,2.587965-1.7566996,4.0369945-1.1497867l2.8657142,1.2002785c1.4444817.6050081,3.1153774.12945,4.0247968-1.1455083l6.7172007-9.417163c.9071158-1.2717288,2.5743943-1.7450816,4.0144283-1.1397262l5.5198678,2.3204187c1.4430268.6066135,3.1137697.1319561,4.0223175-1.1427389l6.4594145-9.0625757c2.0248091,3.5597961,3.0145069,7.7887694,2.5468032,12.2706573Z"/><path class="cls-2" d="M3.2920959,28.8726296c.82329-1.1551271,2.0209115-2.0434967,3.4138697-2.3114381,1.0861554-.2089265,2.156905-.0992829,3.1472499.3155174l2.8649902,1.1999512c.1651001.0691528.3388672.104187.5164795.104187.4365845,0,.8488159-.2124634,1.1026611-.5683594l6.5942097-9.2447929c.8231505-1.154021,2.0204067-2.0410099,3.4124878-2.3083136,1.0821376-.2077892,2.1463585-.0989034,3.1282512.3138487l5.5198364,2.3204346c.1665649.0700684.3417969.1055298.5206909.1055298.4351807,0,.8456421-.2113647,1.0979614-.5653687l6.9192505-9.7077637C37.8272145,3.3644409,31.7802174,0,24.9450124,0H3.3599904C1.5043217,0,.000005,1.5043167.000005,3.3599854v30.1316528l3.2920909-4.6190085Z"/></g></g></g></svg>
