<svg xmlns="http://www.w3.org/2000/svg" viewBox="-10 -10 276 276"><circle cx="128" cy="128" r="64" fill="#fff"/><path fill="#669df6" d="M96 183.4A63.7 63.7 0 0 1 72.6 160L17.2 64A128 128 0 0 0 128 256l55.4-96A64 64 0 0 1 96 183.4Z"/><path fill="#aecbfa" d="M192 128a63.7 63.7 0 0 1-8.6 32L128 256A128 128 0 0 0 238.9 64h-111a64 64 0 0 1 64 64Z"/><circle cx="128" cy="128" r="52" fill="#1a73e8"/><path fill="#1967d2" d="M96 72.6a63.7 63.7 0 0 1 32-8.6h110.8a128 128 0 0 0-221.7 0l55.5 96A64 64 0 0 1 96 72.6Z"/></svg>
