<svg xmlns="http://www.w3.org/2000/svg" fill="#fff" viewBox="0 0 36600 36600"><linearGradient id="a" x1="18300" x2="18300" y1="36551" y2="50" gradientUnits="userSpaceOnUse"><stop offset="0" stop-color="#ff780b"/><stop offset="1" stop-color="#ffa322"/></linearGradient><path fill="url(#a)" d="M28539 36550H8061A8011 8011 0 0150 28539V8061A8011 8011 0 018061 50h20479a8011 8011 0 018011 8011v20479a8011 8011 0 01-8012 8010z"/><path d="M14177 31857l-134-40c-3768-1063-5541-5252-4515-8650 539-1785 1698-3109 3211-4140 1016-694 2071-1331 3087-2023 1454-993 2554-2278 3100-3977 669-2078 448-4026-1038-5690-1562-1750-3575-2432-5886-2134-2964 382-5181 1950-6789 4427-66 101-114 212-170 319 667-431 1358-708 2128-801 1560-190 3060 843 3354 2341 226 1152-73 2206-759 3118-732 973-1537 1894-2334 2818-1837 2133-2782 4553-2387 7394 332 2386 1552 4251 3533 5587 1679 1131 3602 1460 5599 1451m5012-15353c1080-10 2135 197 3175 496a16676 16676 0 014187 1883c1241 771 2573 990 3994 753 279-46 554-137 815-243 92-38 195-178 201-277 21-342 24-687-6-1028a6592 6592 0 00-1129-3188c-798-1166-1916-1904-3239-2347-224-75-309-189-355-400-64-297-145-594-249-878-201-545-472-1050-925-1473-84 103-156 182-217 269-630 904-877 1925-878 3008 0 310-89 537-338 701-689 453-1354 953-2080 1337-960 510-1969 930-2956 1387m3759 13112a8349 8349 0 00483-2834c-8-1253-234-2465-864-3540-1426-2435-3570-3713-6418-3693-1409 10-2662 492-3687 1489a5046 5046 0 00-1178 1776c2679-2832 7031-1981 8688 571 1006 1550 1261 3208 663 4958-602 1764-1900 2855-3609 3521 3188-9 6362-52 9610-347-790-1563-2196-1785-3688-1901"/><path d="M31689 22976c-32-580-319-968-753-1258-533-355-1146-445-1768-502-1129-102-2214-369-3211-921-852-472-1669-1012-2543-1438-1375-670-2851-1003-4374-1141-1044-96-2062-10-3059 314-117 38-226 100-339 151 131 49 240 51 347 49 1174-27 2319 136 3418 554 2282 866 3938 2447 5115 4554 112 201 247 348 459 369 534 51 1074 123 1607 92 686-39 1302-353 1920-640 726-337 1489-507 2295-375 278 42 553 117 886 192m-17512 8881c-1998 9-3921-320-5600-1454-1981-1336-3201-3201-3533-5587-395-2841 550-5261 2387-7394 796-923 1601-1844 2334-2818 686-911 985-1966 759-3118-294-1498-1795-2531-3354-2341-770 94-1461 371-2128 801 56-106 106-218 170-319 1608-2477 3824-4045 6788-4427 2312-298 4324 384 5886 2134 1486 1663 1707 3612 1038 5690-546 1700-1646 2986-3100 3977-1016 694-2071 1331-3087 2023-1512 1032-2672 2356-3211 4140-1027 3398 746 7587 4515 8650 47 17 92 30 136 43m5012-15353c985-457 1994-876 2955-1386 726-386 1391-885 2080-1337 249-164 338-391 338-701 1-1083 247-2104 878-3008 61-86 133-165 217-269 453 422 724 928 925 1473 105 285 185 582 249 878 46 212 131 325 355 400 1323 443 2441 1181 3239 2347a6588 6588 0 011129 3188c30 341 28 686 6 1028a384 384 0 01-201 277 3914 3914 0 01-815 243c-1421 236-2753 18-3994-753a16625 16625 0 00-4187-1883c-1037-301-2093-507-3174-497m3759 13112c1493 114 2898 337 3691 1902-3249 294-6423 338-9610 347 1708-666 3006-1757 3609-3521 597-1750 343-3408-663-4958-1657-2550-6008-3403-8688-571a5037 5037 0 011178-1776c1024-996 2278-1478 3686-1489 2848-21 4992 1258 6418 3693 630 1076 855 2287 864 3540 4 955-153 1874-485 2833"/><path d="M31689 22976l-888-196c-805-131-1568 38-2295 375-618 287-1234 601-1920 640-533 29-1073-41-1607-92-212-21-347-168-459-369-1178-2106-2832-3686-5115-4554-1099-417-2243-580-3418-554-107 2-215 0-347-49 113-51 223-113 339-151 996-324 2015-409 3059-314 1523 140 2999 471 4374 1141 874 426 1691 966 2543 1438 998 554 2082 820 3211 921 622 56 1235 147 1768 502 437 293 724 681 755 1262m-16354-286a3895 3895 0 00-3903 3878 3879 3879 0 003909 3893 3868 3868 0 003882-3886 3878 3878 0 00-3888-3885zm-26 5677c-981-4-1782-807-1785-1787-1-984 819-1797 1813-1797s1804 820 1790 1812c-12 1008-799 1775-1818 1772z"/></svg>
