<svg width="121" height="20" viewBox="0 0 121 20" fill="none" xmlns="http://www.w3.org/2000/svg">
<mask id="path-1-outside-1_670_630" maskUnits="userSpaceOnUse" x="0" y="0" width="121" height="20" fill="black">
<rect fill="white" width="121" height="20"/>
<path d="M6.33081 19.3462C2.4977 19.3462 0.593513 17.3678 0.519324 14.7959H2.96757C3.06649 16.255 3.95676 17.3926 6.30608 17.3926C8.43284 17.3926 9.00162 16.4528 9.00162 15.5378C9.00162 13.9551 7.32 13.782 5.68784 13.4358C3.48689 12.9165 0.964459 12.2735 0.964459 9.65216C0.964459 7.47595 2.72027 6.01689 5.76203 6.01689C9.22419 6.01689 10.8811 7.87162 11.0542 10.0478H8.60595C8.43284 9.08338 7.91351 7.97054 5.81149 7.97054C4.17932 7.97054 3.48689 8.61351 3.48689 9.55324C3.48689 10.8639 4.89649 10.9876 6.67703 11.3832C9.00162 11.9273 11.5241 12.595 11.5241 15.4142C11.5241 17.8624 9.64459 19.3462 6.33081 19.3462ZM17.9395 17.1453C18.3599 17.1453 18.5577 17.1205 18.9781 17.0464V19C18.3599 19.1236 17.9642 19.1484 17.4449 19.1484C15.3676 19.1484 14.1064 18.357 14.1064 15.4389V8.39095H12.2764V6.38784H14.1064V2.33216H16.5299V6.38784H18.9534V8.39095H16.5299V15.5131C16.5299 16.8485 16.9008 17.1453 17.9395 17.1453ZM24.4569 19.3462C21.9345 19.3462 20.3271 17.8872 20.3271 15.7357C20.3271 12.9165 22.4538 12.0757 25.5945 11.4822C27.5729 11.1112 28.7846 10.8639 28.7846 9.62743C28.7846 8.71243 28.2406 7.94581 26.3858 7.94581C24.1849 7.94581 23.5172 8.63824 23.3936 10.3199H20.9206C21.0442 7.89635 22.6269 5.99216 26.4848 5.99216C29.0814 5.99216 31.1587 7.08027 31.1587 10.3446V16.1314C31.1587 17.0464 31.2823 17.5162 31.7522 17.5162C31.8264 17.5162 31.9006 17.5162 32.049 17.4915V18.9753C31.6286 19.0742 31.2081 19.1236 30.8125 19.1236C29.6007 19.1236 28.9577 18.6538 28.8094 17.2195H28.7599C27.9438 18.5301 26.5095 19.3462 24.4569 19.3462ZM25.001 17.3926C27.1772 17.3926 28.7846 16.2797 28.7846 14.0788V12.2735C28.389 12.6445 27.3008 12.9165 26.0149 13.1885C23.7892 13.6336 22.8495 14.2519 22.8495 15.5626C22.8495 16.7496 23.4925 17.3926 25.001 17.3926ZM38.5154 17.1453C38.9358 17.1453 39.1336 17.1205 39.554 17.0464V19C38.9358 19.1236 38.5401 19.1484 38.0208 19.1484C35.9435 19.1484 34.6823 18.357 34.6823 15.4389V8.39095H32.8523V6.38784H34.6823V2.33216H37.1058V6.38784H39.5293V8.39095H37.1058V15.5131C37.1058 16.8485 37.4767 17.1453 38.5154 17.1453ZM52.8538 12.4219C52.8538 12.7681 52.8538 13.1391 52.8291 13.3369H43.135C43.1845 15.4389 44.421 17.3926 46.9187 17.3926C49.1443 17.3926 50.0099 15.9582 50.2325 15.1174H52.7054C52.0377 17.5409 50.183 19.3709 46.8692 19.3709C42.863 19.3709 40.6373 16.527 40.6373 12.6692C40.6373 8.71243 43.0114 5.99216 46.8692 5.99216C50.7023 5.99216 52.8538 8.51459 52.8538 12.4219ZM43.135 11.4327H50.3314C50.3314 9.45432 48.9465 7.97054 46.795 7.97054C44.7672 7.97054 43.2834 9.35541 43.135 11.4327ZM60.5393 19.3709C56.6073 19.3709 54.2333 16.6507 54.2333 12.6939C54.2333 8.76189 56.6073 5.99216 60.5641 5.99216C64.4714 5.99216 66.8454 8.73716 66.8454 12.6692C66.8454 16.6259 64.4714 19.3709 60.5393 19.3709ZM60.5641 17.3678C63.136 17.3678 64.323 15.3153 64.323 12.6939C64.323 10.0478 63.136 8.02 60.5641 8.02C57.9427 8.02 56.7557 10.0478 56.7557 12.6939C56.7557 15.3153 57.9427 17.3678 60.5641 17.3678ZM73.2433 3.17297C72.2294 3.17297 71.9326 3.46973 71.9326 4.80514V6.38784H74.2819V8.39095H71.9326V19H69.4844V8.39095H67.7533V6.38784H69.4844V4.85459C69.4844 1.93649 70.6961 1.14513 72.7487 1.14513C73.2185 1.14513 73.5895 1.19459 74.2819 1.29351V3.24716C73.7873 3.1977 73.5895 3.17297 73.2433 3.17297ZM81.0824 19H78.5847L74.6774 6.38784H77.2988L79.9696 16.1561H80.019L82.6404 6.38784H85.0886L87.71 16.1561H87.7594L90.455 6.38784H92.9774L89.0701 19H86.5724L83.8521 9.28122H83.8027L81.0824 19ZM105.815 12.4219C105.815 12.7681 105.815 13.1391 105.79 13.3369H96.0963C96.1457 15.4389 97.3822 17.3926 99.8799 17.3926C102.106 17.3926 102.971 15.9582 103.194 15.1174H105.667C104.999 17.5409 103.144 19.3709 99.8304 19.3709C95.8242 19.3709 93.5985 16.527 93.5985 12.6692C93.5985 8.71243 95.9726 5.99216 99.8304 5.99216C103.664 5.99216 105.815 8.51459 105.815 12.4219ZM96.0963 11.4327H103.293C103.293 9.45432 101.908 7.97054 99.7563 7.97054C97.7284 7.97054 96.2446 9.35541 96.0963 11.4327ZM114.218 6.01689C117.433 6.01689 119.881 8.53932 119.881 12.6939C119.881 16.8485 117.433 19.3462 114.218 19.3462C112.239 19.3462 111.028 18.4559 110.335 17.442H110.286V19H107.862V1.31824H110.286V7.87162H110.335C111.028 6.98135 112.239 6.01689 114.218 6.01689ZM113.822 17.3431C116.196 17.3431 117.334 15.1669 117.334 12.6939C117.334 10.2209 116.196 8.04473 113.822 8.04473C111.646 8.04473 110.31 9.82527 110.31 12.6939C110.31 15.5378 111.646 17.3431 113.822 17.3431Z"/>
</mask>
<path d="M6.33081 19.3462C2.4977 19.3462 0.593513 17.3678 0.519324 14.7959H2.96757C3.06649 16.255 3.95676 17.3926 6.30608 17.3926C8.43284 17.3926 9.00162 16.4528 9.00162 15.5378C9.00162 13.9551 7.32 13.782 5.68784 13.4358C3.48689 12.9165 0.964459 12.2735 0.964459 9.65216C0.964459 7.47595 2.72027 6.01689 5.76203 6.01689C9.22419 6.01689 10.8811 7.87162 11.0542 10.0478H8.60595C8.43284 9.08338 7.91351 7.97054 5.81149 7.97054C4.17932 7.97054 3.48689 8.61351 3.48689 9.55324C3.48689 10.8639 4.89649 10.9876 6.67703 11.3832C9.00162 11.9273 11.5241 12.595 11.5241 15.4142C11.5241 17.8624 9.64459 19.3462 6.33081 19.3462ZM17.9395 17.1453C18.3599 17.1453 18.5577 17.1205 18.9781 17.0464V19C18.3599 19.1236 17.9642 19.1484 17.4449 19.1484C15.3676 19.1484 14.1064 18.357 14.1064 15.4389V8.39095H12.2764V6.38784H14.1064V2.33216H16.5299V6.38784H18.9534V8.39095H16.5299V15.5131C16.5299 16.8485 16.9008 17.1453 17.9395 17.1453ZM24.4569 19.3462C21.9345 19.3462 20.3271 17.8872 20.3271 15.7357C20.3271 12.9165 22.4538 12.0757 25.5945 11.4822C27.5729 11.1112 28.7846 10.8639 28.7846 9.62743C28.7846 8.71243 28.2406 7.94581 26.3858 7.94581C24.1849 7.94581 23.5172 8.63824 23.3936 10.3199H20.9206C21.0442 7.89635 22.6269 5.99216 26.4848 5.99216C29.0814 5.99216 31.1587 7.08027 31.1587 10.3446V16.1314C31.1587 17.0464 31.2823 17.5162 31.7522 17.5162C31.8264 17.5162 31.9006 17.5162 32.049 17.4915V18.9753C31.6286 19.0742 31.2081 19.1236 30.8125 19.1236C29.6007 19.1236 28.9577 18.6538 28.8094 17.2195H28.7599C27.9438 18.5301 26.5095 19.3462 24.4569 19.3462ZM25.001 17.3926C27.1772 17.3926 28.7846 16.2797 28.7846 14.0788V12.2735C28.389 12.6445 27.3008 12.9165 26.0149 13.1885C23.7892 13.6336 22.8495 14.2519 22.8495 15.5626C22.8495 16.7496 23.4925 17.3926 25.001 17.3926ZM38.5154 17.1453C38.9358 17.1453 39.1336 17.1205 39.554 17.0464V19C38.9358 19.1236 38.5401 19.1484 38.0208 19.1484C35.9435 19.1484 34.6823 18.357 34.6823 15.4389V8.39095H32.8523V6.38784H34.6823V2.33216H37.1058V6.38784H39.5293V8.39095H37.1058V15.5131C37.1058 16.8485 37.4767 17.1453 38.5154 17.1453ZM52.8538 12.4219C52.8538 12.7681 52.8538 13.1391 52.8291 13.3369H43.135C43.1845 15.4389 44.421 17.3926 46.9187 17.3926C49.1443 17.3926 50.0099 15.9582 50.2325 15.1174H52.7054C52.0377 17.5409 50.183 19.3709 46.8692 19.3709C42.863 19.3709 40.6373 16.527 40.6373 12.6692C40.6373 8.71243 43.0114 5.99216 46.8692 5.99216C50.7023 5.99216 52.8538 8.51459 52.8538 12.4219ZM43.135 11.4327H50.3314C50.3314 9.45432 48.9465 7.97054 46.795 7.97054C44.7672 7.97054 43.2834 9.35541 43.135 11.4327ZM60.5393 19.3709C56.6073 19.3709 54.2333 16.6507 54.2333 12.6939C54.2333 8.76189 56.6073 5.99216 60.5641 5.99216C64.4714 5.99216 66.8454 8.73716 66.8454 12.6692C66.8454 16.6259 64.4714 19.3709 60.5393 19.3709ZM60.5641 17.3678C63.136 17.3678 64.323 15.3153 64.323 12.6939C64.323 10.0478 63.136 8.02 60.5641 8.02C57.9427 8.02 56.7557 10.0478 56.7557 12.6939C56.7557 15.3153 57.9427 17.3678 60.5641 17.3678ZM73.2433 3.17297C72.2294 3.17297 71.9326 3.46973 71.9326 4.80514V6.38784H74.2819V8.39095H71.9326V19H69.4844V8.39095H67.7533V6.38784H69.4844V4.85459C69.4844 1.93649 70.6961 1.14513 72.7487 1.14513C73.2185 1.14513 73.5895 1.19459 74.2819 1.29351V3.24716C73.7873 3.1977 73.5895 3.17297 73.2433 3.17297ZM81.0824 19H78.5847L74.6774 6.38784H77.2988L79.9696 16.1561H80.019L82.6404 6.38784H85.0886L87.71 16.1561H87.7594L90.455 6.38784H92.9774L89.0701 19H86.5724L83.8521 9.28122H83.8027L81.0824 19ZM105.815 12.4219C105.815 12.7681 105.815 13.1391 105.79 13.3369H96.0963C96.1457 15.4389 97.3822 17.3926 99.8799 17.3926C102.106 17.3926 102.971 15.9582 103.194 15.1174H105.667C104.999 17.5409 103.144 19.3709 99.8304 19.3709C95.8242 19.3709 93.5985 16.527 93.5985 12.6692C93.5985 8.71243 95.9726 5.99216 99.8304 5.99216C103.664 5.99216 105.815 8.51459 105.815 12.4219ZM96.0963 11.4327H103.293C103.293 9.45432 101.908 7.97054 99.7563 7.97054C97.7284 7.97054 96.2446 9.35541 96.0963 11.4327ZM114.218 6.01689C117.433 6.01689 119.881 8.53932 119.881 12.6939C119.881 16.8485 117.433 19.3462 114.218 19.3462C112.239 19.3462 111.028 18.4559 110.335 17.442H110.286V19H107.862V1.31824H110.286V7.87162H110.335C111.028 6.98135 112.239 6.01689 114.218 6.01689ZM113.822 17.3431C116.196 17.3431 117.334 15.1669 117.334 12.6939C117.334 10.2209 116.196 8.04473 113.822 8.04473C111.646 8.04473 110.31 9.82527 110.31 12.6939C110.31 15.5378 111.646 17.3431 113.822 17.3431Z" fill="#070707"/>
<path d="M0.519324 14.7959V14.4662H0.179946L0.189732 14.8055L0.519324 14.7959ZM2.96757 14.7959L3.29654 14.7736L3.2757 14.4662H2.96757V14.7959ZM5.68784 13.4358L5.6121 13.7568L5.61942 13.7584L5.68784 13.4358ZM11.0542 10.0478V10.3776H11.4112L11.3829 10.0217L11.0542 10.0478ZM8.60595 10.0478L8.2814 10.1061L8.33013 10.3776H8.60595V10.0478ZM6.67703 11.3832L6.75217 11.0622L6.74856 11.0614L6.67703 11.3832ZM6.33081 19.3462V19.0165C4.46889 19.0165 3.1177 18.5363 2.22846 17.7838C1.34334 17.0349 0.883621 15.9895 0.848917 14.7864L0.519324 14.7959L0.189732 14.8055C0.229217 16.1743 0.758687 17.404 1.80249 18.2873C2.84216 19.167 4.35962 19.6759 6.33081 19.6759V19.3462ZM0.519324 14.7959V15.1257H2.96757V14.7959V14.4662H0.519324V14.7959ZM2.96757 14.7959L2.63859 14.8182C2.69217 15.6085 2.96382 16.3492 3.57467 16.8886C4.18285 17.4256 5.08124 17.7223 6.30608 17.7223V17.3926V17.0628C5.1816 17.0628 4.46019 16.7907 4.01117 16.3942C3.56483 16.0001 3.34189 15.4425 3.29654 14.7736L2.96757 14.7959ZM6.30608 17.3926V17.7223C7.41153 17.7223 8.17514 17.4789 8.66581 17.0588C9.1649 16.6316 9.33135 16.0654 9.33135 15.5378H9.00162H8.67189C8.67189 15.9253 8.55395 16.2865 8.23696 16.5578C7.91155 16.8364 7.32739 17.0628 6.30608 17.0628V17.3926ZM9.00162 15.5378H9.33135C9.33135 15.0794 9.20799 14.7003 8.97715 14.3925C8.75002 14.0897 8.43645 13.8793 8.09346 13.7231C7.42581 13.419 6.54045 13.2796 5.75626 13.1133L5.68784 13.4358L5.61942 13.7584C6.46739 13.9382 7.23892 14.0585 7.82012 14.3232C8.10156 14.4514 8.3104 14.6026 8.44958 14.7882C8.58505 14.9688 8.67189 15.2049 8.67189 15.5378H9.00162ZM5.68784 13.4358L5.76356 13.1149C4.65301 12.8529 3.52569 12.572 2.67269 12.0509C1.8455 11.5455 1.29419 10.8268 1.29419 9.65216H0.964459H0.63473C0.63473 11.0989 1.34464 12.0123 2.3289 12.6136C3.28735 13.1992 4.52172 13.4994 5.61212 13.7567L5.68784 13.4358ZM0.964459 9.65216H1.29419C1.29419 8.66176 1.6893 7.85064 2.42495 7.27877C3.16935 6.7001 4.28969 6.34662 5.76203 6.34662V6.01689V5.68716C4.19261 5.68716 2.91416 6.06321 2.02022 6.75812C1.11753 7.45984 0.63473 8.46635 0.63473 9.65216H0.964459ZM5.76203 6.01689V6.34662C7.43457 6.34662 8.63268 6.79394 9.4284 7.46789C10.2228 8.14071 10.6451 9.06349 10.7255 10.074L11.0542 10.0478L11.3829 10.0217C11.2902 8.85597 10.7975 7.76328 9.85461 6.96467C8.91306 6.16721 7.55164 5.68716 5.76203 5.68716V6.01689ZM11.0542 10.0478V9.71811H8.60595V10.0478V10.3776H11.0542V10.0478ZM8.60595 10.0478L8.93049 9.98959C8.83854 9.47728 8.64719 8.87827 8.16074 8.40997C7.66854 7.93614 6.92167 7.64081 5.81149 7.64081V7.97054V8.30027C6.80333 8.30027 7.36714 8.56136 7.70338 8.88506C8.04538 9.2143 8.20025 9.65394 8.2814 10.1061L8.60595 10.0478ZM5.81149 7.97054V7.64081C4.95993 7.64081 4.29804 7.80727 3.84138 8.14415C3.36908 8.49257 3.15716 8.99302 3.15716 9.55324H3.48689H3.81662C3.81662 9.17373 3.95092 8.88283 4.23287 8.67484C4.53047 8.45529 5.03088 8.30027 5.81149 8.30027V7.97054ZM3.48689 9.55324H3.15716C3.15716 9.94502 3.2644 10.2733 3.47643 10.5411C3.68329 10.8025 3.96986 10.9809 4.28536 11.1149C4.89735 11.3748 5.74893 11.5148 6.6055 11.7051L6.67703 11.3832L6.74856 11.0614C5.82458 10.856 5.0811 10.7364 4.54316 10.5079C4.28368 10.3977 4.10657 10.2747 3.9935 10.1318C3.88558 9.9955 3.81662 9.8168 3.81662 9.55324H3.48689ZM6.67703 11.3832L6.60189 11.7043C7.77365 11.9785 8.92904 12.2714 9.795 12.8236C10.2218 13.0957 10.568 13.425 10.8088 13.8377C11.0488 14.249 11.1943 14.7607 11.1943 15.4142H11.5241H11.8538C11.8538 14.6581 11.684 14.0291 11.3784 13.5053C11.0736 12.9829 10.6439 12.5827 10.1495 12.2675C9.17312 11.645 7.905 11.332 6.75217 11.0622L6.67703 11.3832ZM11.5241 15.4142H11.1943C11.1943 16.5447 10.7654 17.4272 9.96964 18.0365C9.16241 18.6546 7.94406 19.0165 6.33081 19.0165V19.3462V19.6759C8.03135 19.6759 9.40962 19.2959 10.3706 18.5601C11.343 17.8155 11.8538 16.732 11.8538 15.4142H11.5241ZM18.9781 17.0464H19.3079V16.6533L18.9208 16.7216L18.9781 17.0464ZM18.9781 19L19.0428 19.3233L19.3079 19.2703V19H18.9781ZM14.1064 8.39095H14.4361V8.06122H14.1064V8.39095ZM12.2764 8.39095H11.9466V8.72068H12.2764V8.39095ZM12.2764 6.38784V6.05811H11.9466V6.38784H12.2764ZM14.1064 6.38784V6.71757H14.4361V6.38784H14.1064ZM14.1064 2.33216V2.00243H13.7766V2.33216H14.1064ZM16.5299 2.33216H16.8596V2.00243H16.5299V2.33216ZM16.5299 6.38784H16.2002V6.71757H16.5299V6.38784ZM18.9534 6.38784H19.2831V6.05811H18.9534V6.38784ZM18.9534 8.39095V8.72068H19.2831V8.39095H18.9534ZM16.5299 8.39095V8.06122H16.2002V8.39095H16.5299ZM17.9395 17.1453V17.475C18.3842 17.475 18.6019 17.4476 19.0354 17.3711L18.9781 17.0464L18.9208 16.7216C18.5136 16.7935 18.3356 16.8155 17.9395 16.8155V17.1453ZM18.9781 17.0464H18.6484V19H18.9781H19.3079V17.0464H18.9781ZM18.9781 19L18.9135 18.6767C18.3203 18.7953 17.9468 18.8186 17.4449 18.8186V19.1484V19.4781C17.9817 19.4781 18.3995 19.452 19.0428 19.3233L18.9781 19ZM17.4449 19.1484V18.8186C16.4373 18.8186 15.7101 18.6247 15.2273 18.1523C14.7448 17.6802 14.4361 16.8606 14.4361 15.4389H14.1064H13.7766C13.7766 16.9354 14.0986 17.9705 14.766 18.6236C15.4332 19.2764 16.3752 19.4781 17.4449 19.4781V19.1484ZM14.1064 15.4389H14.4361V8.39095H14.1064H13.7766V15.4389H14.1064ZM14.1064 8.39095V8.06122H12.2764V8.39095V8.72068H14.1064V8.39095ZM12.2764 8.39095H12.6061V6.38784H12.2764H11.9466V8.39095H12.2764ZM12.2764 6.38784V6.71757H14.1064V6.38784V6.05811H12.2764V6.38784ZM14.1064 6.38784H14.4361V2.33216H14.1064H13.7766V6.38784H14.1064ZM14.1064 2.33216V2.66189H16.5299V2.33216V2.00243H14.1064V2.33216ZM16.5299 2.33216H16.2002V6.38784H16.5299H16.8596V2.33216H16.5299ZM16.5299 6.38784V6.71757H18.9534V6.38784V6.05811H16.5299V6.38784ZM18.9534 6.38784H18.6237V8.39095H18.9534H19.2831V6.38784H18.9534ZM18.9534 8.39095V8.06122H16.5299V8.39095V8.72068H18.9534V8.39095ZM16.5299 8.39095H16.2002V15.5131H16.5299H16.8596V8.39095H16.5299ZM16.5299 15.5131H16.2002C16.2002 16.1858 16.2874 16.7118 16.6029 17.0536C16.9281 17.4059 17.412 17.475 17.9395 17.475V17.1453V16.8155C17.4284 16.8155 17.2074 16.7362 17.0875 16.6063C16.9579 16.4659 16.8596 16.1759 16.8596 15.5131H16.5299ZM25.5945 11.4822L25.5337 11.1581L25.5333 11.1582L25.5945 11.4822ZM23.3936 10.3199V10.6496H23.6999L23.7224 10.344L23.3936 10.3199ZM20.9206 10.3199L20.5913 10.3031L20.5736 10.6496H20.9206V10.3199ZM32.049 17.4915H32.3787V17.1023L31.9947 17.1662L32.049 17.4915ZM32.049 18.9753L32.1245 19.2962L32.3787 19.2364V18.9753H32.049ZM28.8094 17.2195L29.1373 17.1855L29.1067 16.8897H28.8094V17.2195ZM28.7599 17.2195V16.8897H28.5768L28.48 17.0452L28.7599 17.2195ZM28.7846 12.2735H29.1144V11.5124L28.5591 12.033L28.7846 12.2735ZM26.0149 13.1885L26.0796 13.5119L26.0831 13.5111L26.0149 13.1885ZM24.4569 19.3462V19.0165C23.2581 19.0165 22.309 18.6703 21.6644 18.1007C21.0235 17.5343 20.6568 16.7243 20.6568 15.7357H20.3271H19.9973C19.9973 16.8985 20.4344 17.8938 21.2278 18.5948C22.0175 19.2926 23.1334 19.6759 24.4569 19.6759V19.3462ZM20.3271 15.7357H20.6568C20.6568 14.4296 21.1392 13.6183 21.9701 13.0458C22.8317 12.4522 24.0864 12.1027 25.6557 11.8062L25.5945 11.4822L25.5333 11.1582C23.962 11.4551 22.5828 11.8228 21.596 12.5028C20.5783 13.2039 19.9973 14.2226 19.9973 15.7357H20.3271ZM25.5945 11.4822L25.6553 11.8062C26.6283 11.6238 27.4755 11.4625 28.0735 11.1769C28.3801 11.0305 28.6456 10.841 28.8329 10.578C29.0233 10.3108 29.1144 9.99389 29.1144 9.62743H28.7846H28.4549C28.4549 9.87922 28.3945 10.0569 28.2958 10.1954C28.1941 10.3382 28.033 10.4655 27.7894 10.5818C27.2869 10.8218 26.5391 10.9696 25.5337 11.1581L25.5945 11.4822ZM28.7846 9.62743H29.1144C29.1144 9.10238 28.9554 8.57583 28.4916 8.19002C28.0398 7.81408 27.3503 7.61608 26.3858 7.61608V7.94581V8.27554C27.2762 8.27554 27.7861 8.46085 28.0699 8.69698C28.3418 8.92322 28.4549 9.23749 28.4549 9.62743H28.7846ZM26.3858 7.94581V7.61608C25.2668 7.61608 24.4491 7.78855 23.899 8.24949C23.338 8.71946 23.1287 9.42548 23.0647 10.2957L23.3936 10.3199L23.7224 10.344C23.7821 9.53263 23.9684 9.05162 24.3225 8.75497C24.6873 8.44929 25.3039 8.27554 26.3858 8.27554V7.94581ZM23.3936 10.3199V9.99014H20.9206V10.3199V10.6496H23.3936V10.3199ZM20.9206 10.3199L21.2499 10.3367C21.3082 9.19331 21.7074 8.20346 22.5191 7.49572C23.3341 6.78503 24.6074 6.32189 26.4848 6.32189V5.99216V5.66243C24.5043 5.66243 23.0573 6.15139 22.0856 6.99868C21.1106 7.84891 20.6566 9.0229 20.5913 10.3031L20.9206 10.3199ZM26.4848 5.99216V6.32189C27.745 6.32189 28.8268 6.58714 29.5886 7.201C30.3371 7.80423 30.829 8.78703 30.829 10.3446H31.1587H31.4884C31.4884 8.63783 30.9416 7.44442 30.0024 6.68752C29.0763 5.94123 27.8212 5.66243 26.4848 5.66243V5.99216ZM31.1587 10.3446H30.829V16.1314H31.1587H31.4884V10.3446H31.1587ZM31.1587 16.1314H30.829C30.829 16.5891 30.8577 16.991 30.9717 17.2858C31.0313 17.4399 31.1219 17.586 31.2632 17.6921C31.408 17.8009 31.5769 17.8459 31.7522 17.8459V17.5162V17.1865C31.6925 17.1865 31.6698 17.1728 31.6593 17.1649C31.6453 17.1543 31.6168 17.1258 31.5868 17.048C31.5215 16.8791 31.4884 16.5886 31.4884 16.1314H31.1587ZM31.7522 17.5162V17.8459C31.8368 17.8459 31.9306 17.8455 32.1032 17.8167L32.049 17.4915L31.9947 17.1662C31.8706 17.1869 31.816 17.1865 31.7522 17.1865V17.5162ZM32.049 17.4915H31.7192V18.9753H32.049H32.3787V17.4915H32.049ZM32.049 18.9753L31.9734 18.6543C31.5763 18.7477 31.1813 18.7939 30.8125 18.7939V19.1236V19.4534C31.235 19.4534 31.6808 19.4006 32.1245 19.2962L32.049 18.9753ZM30.8125 19.1236V18.7939C30.2419 18.7939 29.8754 18.6821 29.6323 18.464C29.3889 18.2456 29.2077 17.8652 29.1373 17.1855L28.8094 17.2195L28.4814 17.2534C28.5595 18.008 28.7739 18.5798 29.192 18.9549C29.6104 19.3303 30.1713 19.4534 30.8125 19.4534V19.1236ZM28.8094 17.2195V16.8897H28.7599V17.2195V17.5492H28.8094V17.2195ZM28.7599 17.2195L28.48 17.0452C27.7326 18.2455 26.4127 19.0165 24.4569 19.0165V19.3462V19.6759C26.6063 19.6759 28.155 18.8148 29.0398 17.3937L28.7599 17.2195ZM25.001 17.3926V17.7223C26.141 17.7223 27.1688 17.4311 27.9181 16.8159C28.6763 16.1933 29.1144 15.2671 29.1144 14.0788H28.7846H28.4549C28.4549 15.0914 28.0892 15.8221 27.4996 16.3062C26.9012 16.7976 26.0371 17.0628 25.001 17.0628V17.3926ZM28.7846 14.0788H29.1144V12.2735H28.7846H28.4549V14.0788H28.7846ZM28.7846 12.2735L28.5591 12.033C28.4225 12.161 28.1196 12.3044 27.6366 12.453C27.1698 12.5966 26.5888 12.7301 25.9467 12.8659L26.0149 13.1885L26.0831 13.5111C26.7269 13.3749 27.333 13.2364 27.8306 13.0833C28.3121 12.9351 28.7511 12.7569 29.0101 12.5141L28.7846 12.2735ZM26.0149 13.1885L25.9502 12.8652C24.8296 13.0893 23.9778 13.3658 23.4033 13.7845C22.8002 14.2242 22.5198 14.8081 22.5198 15.5626H22.8495H23.1792C23.1792 15.0064 23.3687 14.6258 23.7918 14.3174C24.2437 13.9881 24.9745 13.7329 26.0796 13.5118L26.0149 13.1885ZM22.8495 15.5626H22.5198C22.5198 16.2144 22.6978 16.7774 23.141 17.1696C23.5759 17.5545 24.2081 17.7223 25.001 17.7223V17.3926V17.0628C24.2854 17.0628 23.8418 16.9091 23.5781 16.6758C23.3227 16.4498 23.1792 16.0978 23.1792 15.5626H22.8495ZM39.554 17.0464H39.8838V16.6533L39.4967 16.7216L39.554 17.0464ZM39.554 19L39.6187 19.3233L39.8838 19.2703V19H39.554ZM34.6823 8.39095H35.012V8.06122H34.6823V8.39095ZM32.8523 8.39095H32.5226V8.72068H32.8523V8.39095ZM32.8523 6.38784V6.05811H32.5226V6.38784H32.8523ZM34.6823 6.38784V6.71757H35.012V6.38784H34.6823ZM34.6823 2.33216V2.00243H34.3526V2.33216H34.6823ZM37.1058 2.33216H37.4355V2.00243H37.1058V2.33216ZM37.1058 6.38784H36.7761V6.71757H37.1058V6.38784ZM39.5293 6.38784H39.859V6.05811H39.5293V6.38784ZM39.5293 8.39095V8.72068H39.859V8.39095H39.5293ZM37.1058 8.39095V8.06122H36.7761V8.39095H37.1058ZM38.5154 17.1453V17.475C38.9601 17.475 39.1778 17.4476 39.6113 17.3711L39.554 17.0464L39.4967 16.7216C39.0895 16.7935 38.9115 16.8155 38.5154 16.8155V17.1453ZM39.554 17.0464H39.2243V19H39.554H39.8838V17.0464H39.554ZM39.554 19L39.4894 18.6767C38.8962 18.7953 38.5227 18.8186 38.0208 18.8186V19.1484V19.4781C38.5576 19.4781 38.9754 19.452 39.6187 19.3233L39.554 19ZM38.0208 19.1484V18.8186C37.0132 18.8186 36.286 18.6247 35.8032 18.1523C35.3207 17.6802 35.012 16.8606 35.012 15.4389H34.6823H34.3526C34.3526 16.9354 34.6745 17.9705 35.3419 18.6236C36.0091 19.2764 36.9511 19.4781 38.0208 19.4781V19.1484ZM34.6823 15.4389H35.012V8.39095H34.6823H34.3526V15.4389H34.6823ZM34.6823 8.39095V8.06122H32.8523V8.39095V8.72068H34.6823V8.39095ZM32.8523 8.39095H33.182V6.38784H32.8523H32.5226V8.39095H32.8523ZM32.8523 6.38784V6.71757H34.6823V6.38784V6.05811H32.8523V6.38784ZM34.6823 6.38784H35.012V2.33216H34.6823H34.3526V6.38784H34.6823ZM34.6823 2.33216V2.66189H37.1058V2.33216V2.00243H34.6823V2.33216ZM37.1058 2.33216H36.7761V6.38784H37.1058H37.4355V2.33216H37.1058ZM37.1058 6.38784V6.71757H39.5293V6.38784V6.05811H37.1058V6.38784ZM39.5293 6.38784H39.1996V8.39095H39.5293H39.859V6.38784H39.5293ZM39.5293 8.39095V8.06122H37.1058V8.39095V8.72068H39.5293V8.39095ZM37.1058 8.39095H36.7761V15.5131H37.1058H37.4355V8.39095H37.1058ZM37.1058 15.5131H36.7761C36.7761 16.1858 36.8633 16.7118 37.1788 17.0536C37.504 17.4059 37.9879 17.475 38.5154 17.475V17.1453V16.8155C38.0043 16.8155 37.7833 16.7362 37.6634 16.6063C37.5338 16.4659 37.4355 16.1759 37.4355 15.5131H37.1058ZM52.8291 13.3369V13.6666H53.1202L53.1563 13.3778L52.8291 13.3369ZM43.135 13.3369V13.0072H42.7974L42.8054 13.3446L43.135 13.3369ZM50.2325 15.1174V14.7877H49.9787L49.9137 15.0331L50.2325 15.1174ZM52.7054 15.1174L53.0233 15.205L53.1383 14.7877H52.7054V15.1174ZM43.135 11.4327L42.8061 11.4092L42.7809 11.7624H43.135V11.4327ZM50.3314 11.4327V11.7624H50.6611V11.4327H50.3314ZM52.8538 12.4219H52.5241C52.5241 12.7799 52.5234 13.124 52.5019 13.296L52.8291 13.3369L53.1563 13.3778C53.1842 13.1541 53.1835 12.7563 53.1835 12.4219H52.8538ZM52.8291 13.3369V13.0072H43.135V13.3369V13.6666H52.8291V13.3369ZM43.135 13.3369L42.8054 13.3446C42.8315 14.4538 43.1708 15.5445 43.8557 16.3644C44.5474 17.1924 45.5745 17.7223 46.9187 17.7223V17.3926V17.0628C45.7651 17.0628 44.9251 16.6159 44.3618 15.9416C43.7917 15.2591 43.488 14.322 43.4647 13.3291L43.135 13.3369ZM46.9187 17.3926V17.7223C48.1086 17.7223 48.9603 17.3365 49.5456 16.8169C50.1246 16.303 50.4263 15.6737 50.5512 15.2018L50.2325 15.1174L49.9137 15.0331C49.8161 15.402 49.5737 15.9102 49.1078 16.3237C48.6484 16.7315 47.9544 17.0628 46.9187 17.0628V17.3926ZM50.2325 15.1174V15.4472H52.7054V15.1174V14.7877H50.2325V15.1174ZM52.7054 15.1174L52.3875 15.0299C52.0688 16.1868 51.4718 17.185 50.575 17.8944C49.68 18.6023 48.4629 19.0412 46.8692 19.0412V19.3709V19.7007C48.5893 19.7007 49.9564 19.2246 50.9842 18.4116C52.0101 17.6001 52.6744 16.4716 53.0233 15.205L52.7054 15.1174ZM46.8692 19.3709V19.0412C44.9494 19.0412 43.4854 18.3628 42.4977 17.2481C41.5055 16.1282 40.967 14.5368 40.967 12.6692H40.6373H40.3076C40.3076 14.6594 40.882 16.4189 42.0041 17.6854C43.1309 18.9571 44.7828 19.7007 46.8692 19.7007V19.3709ZM40.6373 12.6692H40.967C40.967 10.7558 41.5404 9.17172 42.5497 8.06958C43.5561 6.97073 45.0219 6.32189 46.8692 6.32189V5.99216V5.66243C44.8587 5.66243 43.2086 6.37373 42.0634 7.6242C40.9212 8.87139 40.3076 10.6258 40.3076 12.6692H40.6373ZM46.8692 5.99216V6.32189C48.7101 6.32189 50.1111 6.92513 51.0549 7.96356C52.0026 9.00633 52.5241 10.5265 52.5241 12.4219H52.8538H53.1835C53.1835 10.41 52.6292 8.71529 51.5429 7.52002C50.4527 6.32041 48.8614 5.66243 46.8692 5.66243V5.99216ZM43.135 11.4327V11.7624H50.3314V11.4327V11.103H43.135V11.4327ZM50.3314 11.4327H50.6611C50.6611 10.3652 50.2863 9.41317 49.6037 8.72716C48.9204 8.04036 47.9491 7.64081 46.795 7.64081V7.97054V8.30027C47.7924 8.30027 48.5893 8.64262 49.1363 9.1923C49.684 9.74277 50.0016 10.5219 50.0016 11.4327H50.3314ZM46.795 7.97054V7.64081C44.5906 7.64081 42.9666 9.16295 42.8061 11.4092L43.135 11.4327L43.4639 11.4562C43.6002 9.54786 44.9437 8.30027 46.795 8.30027V7.97054ZM60.5393 19.3709V19.0412C58.6532 19.0412 57.1688 18.3911 56.154 17.2925C55.1363 16.1907 54.563 14.6072 54.563 12.6939H54.2333H53.9035C53.9035 14.7374 54.5172 16.4924 55.6696 17.7399C56.8248 18.9906 58.4935 19.7007 60.5393 19.7007V19.3709ZM54.2333 12.6939H54.563C54.563 10.7933 55.1361 9.20314 56.1577 8.09165C57.1761 6.98351 58.6667 6.32189 60.5641 6.32189V5.99216V5.66243C58.5046 5.66243 56.8299 6.38568 55.6721 7.64541C54.5174 8.90179 53.9035 10.6625 53.9035 12.6939H54.2333ZM60.5641 5.99216V6.32189C62.4364 6.32189 63.9147 6.97714 64.9272 8.07923C65.9426 9.18459 66.5157 10.7686 66.5157 12.6692H66.8454H67.1752C67.1752 10.6377 66.5612 8.88325 65.4128 7.6331C64.2614 6.37969 62.599 5.66243 60.5641 5.66243V5.99216ZM66.8454 12.6692H66.5157C66.5157 14.5826 65.9423 16.1726 64.9241 17.2808C63.9089 18.3856 62.4246 19.0412 60.5393 19.0412V19.3709V19.7007C62.5861 19.7007 64.2548 18.9838 65.4097 17.7269C66.5615 16.4734 67.1752 14.7125 67.1752 12.6692H66.8454ZM60.5641 17.3678V17.6976C61.9499 17.6976 62.9904 17.1384 63.6736 16.2092C64.3469 15.2935 64.6527 14.0482 64.6527 12.6939H64.323H63.9933C63.9933 13.961 63.7055 15.0526 63.1423 15.8186C62.5891 16.5709 61.7501 17.0381 60.5641 17.0381V17.3678ZM64.323 12.6939H64.6527C64.6527 11.3278 64.3472 10.082 63.6733 9.16888C62.9893 8.24209 61.9485 7.69027 60.5641 7.69027V8.02V8.34973C61.7515 8.34973 62.5902 8.81183 63.1427 9.56047C63.7053 10.3228 63.9933 11.4139 63.9933 12.6939H64.323ZM60.5641 8.02V7.69027C59.1571 7.69027 58.1037 8.2403 57.4125 9.16762C56.7315 10.0813 56.426 11.3279 56.426 12.6939H56.7557H57.0854C57.0854 11.4139 57.3734 10.3235 57.9412 9.56174C58.4989 8.81362 59.3497 8.34973 60.5641 8.34973V8.02ZM56.7557 12.6939H56.426C56.426 14.0481 56.7317 15.2943 57.4122 16.2105C58.1027 17.1403 59.1557 17.6976 60.5641 17.6976V17.3678V17.0381C59.3511 17.0381 58.4999 16.5691 57.9416 15.8173C57.3732 15.0519 57.0854 13.961 57.0854 12.6939H56.7557ZM71.9326 6.38784H71.6029V6.71757H71.9326V6.38784ZM74.2819 6.38784H74.6116V6.05811H74.2819V6.38784ZM74.2819 8.39095V8.72068H74.6116V8.39095H74.2819ZM71.9326 8.39095V8.06122H71.6029V8.39095H71.9326ZM71.9326 19V19.3297H72.2623V19H71.9326ZM69.4844 19H69.1546V19.3297H69.4844V19ZM69.4844 8.39095H69.8141V8.06122H69.4844V8.39095ZM67.7533 8.39095H67.4235V8.72068H67.7533V8.39095ZM67.7533 6.38784V6.05811H67.4235V6.38784H67.7533ZM69.4844 6.38784V6.71757H69.8141V6.38784H69.4844ZM74.2819 1.29351H74.6116V1.00754L74.3286 0.967098L74.2819 1.29351ZM74.2819 3.24716L74.2491 3.57526L74.6116 3.61151V3.24716H74.2819ZM73.2433 3.17297V2.84324C72.7289 2.84324 72.259 2.91172 71.9544 3.27719C71.6691 3.61959 71.6029 4.14308 71.6029 4.80514H71.9326H72.2623C72.2623 4.13179 72.3445 3.83919 72.461 3.69936C72.5583 3.58261 72.7438 3.5027 73.2433 3.5027V3.17297ZM71.9326 4.80514H71.6029V6.38784H71.9326H72.2623V4.80514H71.9326ZM71.9326 6.38784V6.71757H74.2819V6.38784V6.05811H71.9326V6.38784ZM74.2819 6.38784H73.9522V8.39095H74.2819H74.6116V6.38784H74.2819ZM74.2819 8.39095V8.06122H71.9326V8.39095V8.72068H74.2819V8.39095ZM71.9326 8.39095H71.6029V19H71.9326H72.2623V8.39095H71.9326ZM71.9326 19V18.6703H69.4844V19V19.3297H71.9326V19ZM69.4844 19H69.8141V8.39095H69.4844H69.1546V19H69.4844ZM69.4844 8.39095V8.06122H67.7533V8.39095V8.72068H69.4844V8.39095ZM67.7533 8.39095H68.083V6.38784H67.7533H67.4235V8.39095H67.7533ZM67.7533 6.38784V6.71757H69.4844V6.38784V6.05811H67.7533V6.38784ZM69.4844 6.38784H69.8141V4.85459H69.4844H69.1546V6.38784H69.4844ZM69.4844 4.85459H69.8141C69.8141 3.42986 70.1118 2.6095 70.5806 2.13808C71.0476 1.66854 71.7542 1.47486 72.7487 1.47486V1.14513V0.815404C71.6906 0.815404 70.7651 1.01741 70.113 1.67306C69.4628 2.32685 69.1546 3.36122 69.1546 4.85459H69.4844ZM72.7487 1.14513V1.47486C73.1919 1.47486 73.5408 1.52072 74.2353 1.61993L74.2819 1.29351L74.3286 0.967098C73.6381 0.868468 73.2452 0.815404 72.7487 0.815404V1.14513ZM74.2819 1.29351H73.9522V3.24716H74.2819H74.6116V1.29351H74.2819ZM74.2819 3.24716L74.3147 2.91907C73.8263 2.87023 73.6097 2.84324 73.2433 2.84324V3.17297V3.5027C73.5693 3.5027 73.7483 3.52518 74.2491 3.57526L74.2819 3.24716ZM81.0824 19V19.3297H81.3325L81.3999 19.0889L81.0824 19ZM78.5847 19L78.2697 19.0976L78.3417 19.3297H78.5847V19ZM74.6774 6.38784V6.05811H74.2301L74.3624 6.48541L74.6774 6.38784ZM77.2988 6.38784L77.6168 6.30087L77.5504 6.05811H77.2988V6.38784ZM79.9696 16.1561L79.6515 16.243L79.7179 16.4858H79.9696V16.1561ZM80.019 16.1561V16.4858H80.2719L80.3375 16.2415L80.019 16.1561ZM82.6404 6.38784V6.05811H82.3875L82.3219 6.30238L82.6404 6.38784ZM85.0886 6.38784L85.4071 6.30238L85.3415 6.05811H85.0886V6.38784ZM87.71 16.1561L87.3915 16.2415L87.4571 16.4858H87.71V16.1561ZM87.7594 16.1561V16.4858H88.0105L88.0773 16.2438L87.7594 16.1561ZM90.455 6.38784V6.05811H90.2039L90.1371 6.30013L90.455 6.38784ZM92.9774 6.38784L93.2924 6.48541L93.4247 6.05811H92.9774V6.38784ZM89.0701 19V19.3297H89.3131L89.3851 19.0976L89.0701 19ZM86.5724 19L86.2549 19.0889L86.3223 19.3297H86.5724V19ZM83.8521 9.28122L84.1697 9.19234L84.1022 8.95149H83.8521V9.28122ZM83.8027 9.28122V8.95149H83.5526L83.4851 9.19234L83.8027 9.28122ZM81.0824 19V18.6703H78.5847V19V19.3297H81.0824V19ZM78.5847 19L78.8997 18.9024L74.9924 6.29026L74.6774 6.38784L74.3624 6.48541L78.2697 19.0976L78.5847 19ZM74.6774 6.38784V6.71757H77.2988V6.38784V6.05811H74.6774V6.38784ZM77.2988 6.38784L76.9807 6.4748L79.6515 16.243L79.9696 16.1561L80.2876 16.0691L77.6168 6.30087L77.2988 6.38784ZM79.9696 16.1561V16.4858H80.019V16.1561V15.8264H79.9696V16.1561ZM80.019 16.1561L80.3375 16.2415L82.9588 6.4733L82.6404 6.38784L82.3219 6.30238L79.7006 16.0706L80.019 16.1561ZM82.6404 6.38784V6.71757H85.0886V6.38784V6.05811H82.6404V6.38784ZM85.0886 6.38784L84.7702 6.4733L87.3915 16.2415L87.71 16.1561L88.0284 16.0706L85.4071 6.30238L85.0886 6.38784ZM87.71 16.1561V16.4858H87.7594V16.1561V15.8264H87.71V16.1561ZM87.7594 16.1561L88.0773 16.2438L90.7728 6.47555L90.455 6.38784L90.1371 6.30013L87.4416 16.0684L87.7594 16.1561ZM90.455 6.38784V6.71757H92.9774V6.38784V6.05811H90.455V6.38784ZM92.9774 6.38784L92.6624 6.29026L88.7551 18.9024L89.0701 19L89.3851 19.0976L93.2924 6.48541L92.9774 6.38784ZM89.0701 19V18.6703H86.5724V19V19.3297H89.0701V19ZM86.5724 19L86.8899 18.9111L84.1697 9.19234L83.8521 9.28122L83.5346 9.37009L86.2549 19.0889L86.5724 19ZM83.8521 9.28122V8.95149H83.8027V9.28122V9.61095H83.8521V9.28122ZM83.8027 9.28122L83.4851 9.19234L80.7649 18.9111L81.0824 19L81.3999 19.0889L84.1202 9.37009L83.8027 9.28122ZM105.79 13.3369V13.6666H106.081L106.117 13.3778L105.79 13.3369ZM96.0963 13.3369V13.0072H95.7587L95.7666 13.3446L96.0963 13.3369ZM103.194 15.1174V14.7877H102.94L102.875 15.0331L103.194 15.1174ZM105.667 15.1174L105.985 15.205L106.1 14.7877H105.667V15.1174ZM96.0963 11.4327L95.7674 11.4092L95.7421 11.7624H96.0963V11.4327ZM103.293 11.4327V11.7624H103.622V11.4327H103.293ZM105.815 12.4219H105.485C105.485 12.7799 105.485 13.124 105.463 13.296L105.79 13.3369L106.117 13.3778C106.145 13.1541 106.145 12.7563 106.145 12.4219H105.815ZM105.79 13.3369V13.0072H96.0963V13.3369V13.6666H105.79V13.3369ZM96.0963 13.3369L95.7666 13.3446C95.7927 14.4538 96.132 15.5445 96.8169 16.3644C97.5086 17.1924 98.5358 17.7223 99.8799 17.7223V17.3926V17.0628C98.7263 17.0628 97.8864 16.6159 97.323 15.9416C96.7529 15.2591 96.4492 14.322 96.4259 13.3291L96.0963 13.3369ZM99.8799 17.3926V17.7223C101.07 17.7223 101.921 17.3365 102.507 16.8169C103.086 16.303 103.388 15.6737 103.512 15.2018L103.194 15.1174L102.875 15.0331C102.777 15.402 102.535 15.9102 102.069 16.3237C101.61 16.7315 100.916 17.0628 99.8799 17.0628V17.3926ZM103.194 15.1174V15.4472H105.667V15.1174V14.7877H103.194V15.1174ZM105.667 15.1174L105.349 15.0299C105.03 16.1868 104.433 17.185 103.536 17.8944C102.641 18.6023 101.424 19.0412 99.8304 19.0412V19.3709V19.7007C101.55 19.7007 102.918 19.2246 103.945 18.4116C104.971 17.6001 105.636 16.4716 105.985 15.205L105.667 15.1174ZM99.8304 19.3709V19.0412C97.9107 19.0412 96.4466 18.3628 95.459 17.2481C94.4667 16.1282 93.9283 14.5368 93.9283 12.6692H93.5985H93.2688C93.2688 14.6594 93.8432 16.4189 94.9654 17.6854C96.0921 18.9571 97.744 19.7007 99.8304 19.7007V19.3709ZM93.5985 12.6692H93.9283C93.9283 10.7558 94.5016 9.17172 95.511 8.06958C96.5173 6.97073 97.9832 6.32189 99.8304 6.32189V5.99216V5.66243C97.8199 5.66243 96.1698 6.37373 95.0246 7.6242C93.8825 8.87139 93.2688 10.6258 93.2688 12.6692H93.5985ZM99.8304 5.99216V6.32189C101.671 6.32189 103.072 6.92513 104.016 7.96356C104.964 9.00633 105.485 10.5265 105.485 12.4219H105.815H106.145C106.145 10.41 105.59 8.71529 104.504 7.52002C103.414 6.32041 101.823 5.66243 99.8304 5.66243V5.99216ZM96.0963 11.4327V11.7624H103.293V11.4327V11.103H96.0963V11.4327ZM103.293 11.4327H103.622C103.622 10.3652 103.248 9.41317 102.565 8.72716C101.882 8.04036 100.91 7.64081 99.7562 7.64081V7.97054V8.30027C100.754 8.30027 101.551 8.64262 102.097 9.1923C102.645 9.74277 102.963 10.5219 102.963 11.4327H103.293ZM99.7562 7.97054V7.64081C97.5519 7.64081 95.9278 9.16295 95.7674 11.4092L96.0963 11.4327L96.4251 11.4562C96.5615 9.54786 97.905 8.30027 99.7562 8.30027V7.97054ZM110.335 17.442L110.607 17.2561L110.509 17.1123H110.335V17.442ZM110.286 17.442V17.1123H109.956V17.442H110.286ZM110.286 19V19.3297H110.615V19H110.286ZM107.862 19H107.532V19.3297H107.862V19ZM107.862 1.31824V0.988513H107.532V1.31824H107.862ZM110.286 1.31824H110.615V0.988513H110.286V1.31824ZM110.286 7.87162H109.956V8.20135H110.286V7.87162ZM110.335 7.87162V8.20135H110.496L110.595 8.07406L110.335 7.87162ZM114.218 6.01689V6.34662C115.734 6.34662 117.059 6.93934 118.008 8.0155C118.959 9.09414 119.551 10.6808 119.551 12.6939H119.881H120.211C120.211 10.5524 119.579 8.80058 118.502 7.57936C117.423 6.35566 115.916 5.68716 114.218 5.68716V6.01689ZM119.881 12.6939H119.551C119.551 14.7069 118.959 16.2871 118.008 17.3593C117.06 18.4292 115.735 19.0165 114.218 19.0165V19.3462V19.6759C115.915 19.6759 117.422 19.0144 118.502 17.7968C119.579 16.5815 120.211 14.8355 120.211 12.6939H119.881ZM114.218 19.3462V19.0165C112.356 19.0165 111.243 18.1867 110.607 17.2561L110.335 17.442L110.063 17.628C110.812 18.7252 112.123 19.6759 114.218 19.6759V19.3462ZM110.335 17.442V17.1123H110.286V17.442V17.7718H110.335V17.442ZM110.286 17.442H109.956V19H110.286H110.615V17.442H110.286ZM110.286 19V18.6703H107.862V19V19.3297H110.286V19ZM107.862 19H108.192V1.31824H107.862H107.532V19H107.862ZM107.862 1.31824V1.64797H110.286V1.31824V0.988513H107.862V1.31824ZM110.286 1.31824H109.956V7.87162H110.286H110.615V1.31824H110.286ZM110.286 7.87162V8.20135H110.335V7.87162V7.54189H110.286V7.87162ZM110.335 7.87162L110.595 8.07406C111.241 7.24357 112.365 6.34662 114.218 6.34662V6.01689V5.68716C112.114 5.68716 110.814 6.71914 110.075 7.66919L110.335 7.87162ZM113.822 17.3431V17.6728C115.127 17.6728 116.103 17.0677 116.741 16.1315C117.37 15.208 117.663 13.9749 117.663 12.6939H117.334H117.004C117.004 13.8859 116.729 14.9774 116.196 15.7603C115.671 16.5304 114.892 17.0134 113.822 17.0134V17.3431ZM117.334 12.6939H117.663C117.663 11.413 117.37 10.1798 116.741 9.25633C116.103 8.32015 115.127 7.715 113.822 7.715V8.04473V8.37446C114.892 8.37446 115.671 8.85742 116.196 9.62759C116.729 10.4105 117.004 11.5019 117.004 12.6939H117.334ZM113.822 8.04473V7.715C112.633 7.715 111.657 8.20641 110.987 9.09509C110.325 9.97337 109.981 11.2133 109.981 12.6939H110.31H110.64C110.64 11.3059 110.964 10.2212 111.513 9.49207C112.055 8.77332 112.834 8.37446 113.822 8.37446V8.04473ZM110.31 12.6939H109.981C109.981 14.1628 110.325 15.4021 110.986 16.283C111.656 17.174 112.632 17.6728 113.822 17.6728V17.3431V17.0134C112.836 17.0134 112.056 16.6096 111.514 15.887C110.964 15.1542 110.64 14.069 110.64 12.6939H110.31Z" fill="black" mask="url(#path-1-outside-1_670_630)"/>
</svg>
