<?xml version="1.0" encoding="UTF-8"?><svg id="Layer_2" xmlns="http://www.w3.org/2000/svg" xmlns:xlink="http://www.w3.org/1999/xlink" viewBox="0 0 285.7961102 67.2695317"><defs><style>.cls-1{fill:url(#linear-gradient);}.cls-1,.cls-2,.cls-3,.cls-4{stroke-width:0px;}.cls-2{fill:url(#linear-gradient-2);}.cls-3{fill:#5850eb;}.cls-4{fill:#1f2961;}</style><linearGradient id="linear-gradient" x1="14.8413403" y1="23.5187459" x2="27.4731407" y2="45.6243966" gradientUnits="userSpaceOnUse"><stop offset="0" stop-color="#909cf7"/><stop offset="1" stop-color="#4b38d8"/></linearGradient><linearGradient id="linear-gradient-2" x1="7.9837957" y1="-.3832364" x2="21.0009873" y2="22.396849" xlink:href="#linear-gradient"/></defs><g id="Plausible_-_Branding"><g id="CE_Gradient_Logo_-_Purple_Gradient_on_White"><g id="Symbol_-_Purple_Gradient"><path class="cls-1" d="m45.2456059,23.5778091c-1.0911024,10.4557623-10.2327486,18.2272829-20.7452872,18.2272811l-4.047804-.0000007v9.5700073c0,5.3019285-4.2980623,9.5999908-9.5999908,9.5999908H3.3599854c-1.8556687,0-3.3599854-1.5043167-3.3599854-3.3599854v-19.7025146l5.0380685-7.0686343c.9118097-1.2793096,2.587965-1.7566996,4.0369945-1.1497867l2.8657142,1.2002785c1.4444817.6050081,3.1153774.12945,4.0247968-1.1455083l6.7172007-9.417163c.9071158-1.2717288,2.5743943-1.7450816,4.0144283-1.1397262l5.5198678,2.3204187c1.4430268.6066135,3.1137697.1319561,4.0223175-1.1427389l6.4594145-9.0625757c2.0248091,3.5597961,3.0145069,7.7887694,2.5468032,12.2706573Z"/><path class="cls-2" d="m3.2920959,29.8476851c.82329-1.1551271,2.0209115-2.0434967,3.4138697-2.3114381,1.0861554-.2089265,2.156905-.0992829,3.1472499.3155174l2.8649902,1.1999512c.1651001.0691528.3388672.104187.5164795.104187.4365845,0,.8488159-.2124634,1.1026611-.5683594l6.5942097-9.2447929c.8231505-1.154021,2.0204067-2.0410099,3.4124878-2.3083136,1.0821376-.2077892,2.1463585-.0989034,3.1282512.3138487l5.5198364,2.3204346c.1665649.0700684.3417969.1055298.5206909.1055298.4351807,0,.8456421-.2113647,1.0979614-.5653687l6.9192505-9.7077637C37.8272145,4.3394964,31.7802174.9750555,24.9450124.9750555H3.3599904C1.5043217.9750555.000005,2.4793722.000005,4.3350408v30.1316528l3.2920909-4.6190085Z"/></g><path id="Tagline_-_Purple" class="cls-3" d="m72.0235938,62.8041163c-1.0277954,0-1.9676787-.1758241-2.8209428-.5274723-.8519713-.3516482-1.590174-.8558497-2.2120225-1.5126045-.6231414-.655462-1.1066577-1.4337422-1.4518418-2.333548-.3438913-.8998058-.5171298-1.8836451-.5171298-2.9528109,0-1.0290882.1822882-1.9818998.5481575-2.8623132.3658693-.8791206.8726565-1.6509367,1.5216543-2.3141556.6502907-.6619261,1.4078858-1.1764702,2.2740781-1.5423395.8648995-.3645765,1.8060757-.5481575,2.8209428-.5481575.6903682,0,1.3600512.1021331,2.0090491.3051066s1.2449899.4835163,1.7866833.8416287c.5404006.3594052.9941819.7756946,1.3587584,1.2488684l-1.6845502,1.8461532c-.3516482-.3645765-.7136391-.6722687-1.0846797-.9230766-.3723334-.2495151-.7588879-.4395603-1.1570778-.5675499-.3994827-.1292824-.8093081-.1939237-1.2281832-.1939237-.6231414,0-1.207498.1163542-1.7556555.3451841-.5481575.2301227-1.0213313.5559145-1.420814.9747896s-.7136391.9166125-.9437618,1.4919193-.3451841,1.2139621-.3451841,1.9172586c0,.7175175.1111829,1.3678082.3348415,1.9482863.2236586.5830638.5416934,1.0833868.9541044,1.5022619.412411.4201679.9062699.7407884,1.4815767.964447s1.207498.3348415,1.8978662.3348415c.4460244,0,.8791206-.0607627,1.2992885-.1822882.4188751-.1228183.8080152-.294764,1.1661276-.5184226.3594052-.2223658.6864897-.4835163.9851322-.7808659l1.2979957,2.090497c-.3244989.3645765-.7575951.6968323-1.2979957.9941819-.5416934.2973496-1.1467352.5313508-1.8164183.7007108-.669683.1680672-1.3367804.2533936-1.9999993.2533936Zm12.2999312,0c-1.0691658,0-2.0232702-.2404653-2.8623132-.7201032-.839043-.4809307-1.5009691-1.1402711-1.9883639-1.9793141s-.7304458-1.7931474-.7304458-2.8623132c0-1.0678729.243051-2.0219773.7304458-2.8610204.4873948-.839043,1.1493209-1.4983835,1.9883639-1.9793141.839043-.4796378,1.7931474-.7201032,2.8623132-.7201032,1.0549447,0,2.002585.2404653,2.841628.7201032.8377502.4809307,1.4983835,1.1402711,1.9780213,1.9793141.4809307.839043.721396,1.7931474.721396,2.8610204,0,1.0691658-.2404653,2.0232702-.721396,2.8623132-.4796378.839043-1.1402711,1.4983835-1.9780213,1.9793141-.839043.4796378-1.7866833.7201032-2.841628.7201032Zm0-2.2120225c.581771,0,1.0989007-.1486748,1.5526821-.4473172.4524885-.2973496.8118937-.6955395,1.0756299-1.1971554.2637362-.500323.3891401-1.0678729.3749191-1.7052354.0142211-.6489978-.1111829-1.2243047-.3749191-1.7246277s-.6231414-.8959273-1.0756299-1.1868128c-.4537814-.2908855-.9709111-.4369746-1.5526821-.4369746s-1.1066577.1460892-1.5733673.4369746-.8287004.6890754-1.0859725,1.1971554c-.2572721.5067872-.3852617,1.0795084-.3852617,1.7142851,0,.6373624.1279896,1.2049123.3852617,1.7052354.2572721.5016159.6192629.8998058,1.0859725,1.1971554.4667096.2986424.9915963.4473172,1.5733673.4473172Zm7.7323826,2.0090491v-10.6955361h2.4563663l.0400776,2.1512598-.4059469.161603c.1215255-.3516482.3038137-.6800256.5481575-.9838394.243051-.3051066.5339365-.5688427.8726565-.7912085.3374272-.2236586.6968323-.3994827,1.0756299-.5287652.3787975-.1279896.7640592-.1926308,1.1570778-.1926308.581771,0,1.0989007.0917905,1.5526821.2740788.4524885.1835811.8312861.4705881,1.1363926.8623139.3038137.3930186.530058.8933416.6800256,1.5022619l-.3852617-.0814479.161603-.3244989c.1486748-.3244989.3581124-.6192629.6296055-.8829991.2702003-.2637362.574014-.500323.912734-.7097606s.6929539-.3684549,1.0652873-.4770522.7407884-.1628959,1.1066577-.1628959c.8118937,0,1.4880409.1628959,2.0297343.4873948.5404006.3244989.9463474.8183578,1.2178406,1.4815767.2702003.6632189.4059469,1.4815767.4059469,2.4563663v6.4537793h-2.5171291v-6.2921763c0-.5404006-.0711053-.9877178-.213316-1.3393661s-.3581124-.6115059-.6489978-.7808659-.6528763-.2533936-1.0859725-.2533936c-.33872,0-.6593404.0568843-.964447.1719456-.3038137.1150614-.5649643.2779572-.7808659.4873948-.2171945.2094375-.3852617.4499029-.50808.7201032-.1215255.2714931-.1822882.5688427-.1822882.8933416v6.3930166h-2.5171291v-6.3115686c0-.5145441-.073691-.9437618-.2223658-1.2889459s-.3658693-.6089203-.6502907-.7925013c-.2831285-.1822882-.6283126-.2727859-1.0342595-.2727859-.33872,0-.6567548.0568843-.9541044.1719456s-.5546217.2740788-.7718162.4770522c-.2159017.2029734-.3852617.4395603-.5067872.7097606-.1215255.2714931-.1822882.5688427-.1822882.8933416v6.4137018h-2.5171291Zm18.9967614,0v-10.6955361h2.4563663l.0400776,2.1512598-.4059469.161603c.1215255-.3516482.3038137-.6800256.5481575-.9838394.243051-.3051066.5339365-.5688427.8726565-.7912085.3374272-.2236586.6968323-.3994827,1.0756299-.5287652.3787975-.1279896.7640592-.1926308,1.1570778-.1926308.581771,0,1.0989007.0917905,1.5526821.2740788.4524885.1835811.8312861.4705881,1.1363926.8623139.3038137.3930186.530058.8933416.6800256,1.5022619l-.3852617-.0814479.161603-.3244989c.1486748-.3244989.3581124-.6192629.6296055-.8829991.2702003-.2637362.574014-.500323.912734-.7097606s.6929539-.3684549,1.0652873-.4770522.7407884-.1628959,1.1066577-.1628959c.8118937,0,1.4880409.1628959,2.0297343.4873948.5404006.3244989.9463474.8183578,1.2178406,1.4815767.2702003.6632189.4059469,1.4815767.4059469,2.4563663v6.4537793h-2.5171291v-6.2921763c0-.5404006-.0711053-.9877178-.213316-1.3393661s-.3581124-.6115059-.6489978-.7808659-.6528763-.2533936-1.0859725-.2533936c-.33872,0-.6593404.0568843-.964447.1719456-.3038137.1150614-.5649643.2779572-.7808659.4873948-.2171945.2094375-.3852617.4499029-.50808.7201032-.1215255.2714931-.1822882.5688427-.1822882.8933416v6.3930166h-2.5171291v-6.3115686c0-.5145441-.073691-.9437618-.2223658-1.2889459s-.3658693-.6089203-.6502907-.7925013c-.2831285-.1822882-.6283126-.2727859-1.0342595-.2727859-.33872,0-.6567548.0568843-.9541044.1719456s-.5546217.2740788-.7718162.4770522c-.2159017.2029734-.3852617.4395603-.5067872.7097606-.1215255.2714931-.1822882.5688427-.1822882.8933416v6.4137018h-2.5171291Zm22.7511234.2029734c-.7705233,0-1.4402064-.1719456-2.0090491-.5171298s-1.0019389-.839043-1.2992885-1.4815767-.4460244-1.4104714-.4460244-2.303813v-6.59599h2.4964439v6.0685176c0,.5675499.0879121,1.052359.2637362,1.450549.1758241.3994827.4330962.7071749.7718162.9230766.3374272.2171945.743374.3257917,1.2178406.3257917.3516482,0,.6722687-.0581771.9631542-.1732385s.5442791-.2766644.7614736-.4873948c.2159017-.2094375.3852617-.4589527.5067872-.7498381.1228183-.2908855.1835811-.6063346.1835811-.9437618v-6.4137018h2.4964439v10.6955361h-2.4356811l-.0413704-2.2327077.4473172-.243051c-.1628959.5145441-.4369746.9709111-.8222363,1.369101-.3852617.3994827-.8429215.7175175-1.3703938.9541044s-1.0885581.3555267-1.6845502.3555267Zm8.8286977-.2029734v-10.6955361h2.4356811l.0413704,2.1913373-.4667096.2443438c.1344537-.4873948.3981899-.9308336.7912085-1.3303163.3917258-.3981899.8584354-.7201032,1.4001288-.9631542.5416934-.2443438,1.0963151-.3658693,1.663865-.3658693.8118937,0,1.4919193.1628959,2.0400769.4873948s.9605685.8118937,1.2385258,1.4608915c.2766644.6489978.4162895,1.4608915.4162895,2.4356811v6.5352272h-2.4964439v-6.352939c0-.5404006-.0749838-.9903035-.2236586-1.3497087-.1486748-.3581124-.3787975-.6218485-.6903682-.7912085s-.6903682-.2469295-1.1363926-.2340012c-.3658693,0-.7007108.0581771-1.0045245.1732385-.3051066.1150614-.5688427.2779572-.7912085.4873948-.2236586.2094375-.3994827.4499029-.5287652.7201032-.1279896.2702003-.1926308.5688427-.1926308.8933416v6.4537793h-2.4964439Zm13.8629558-12.9696142c-.500323,0-.8894632-.1241111-1.1674204-.3749191-.2766644-.2508079-.4149966-.6050418-.4149966-1.0652873,0-.4330962.1409179-.7847444.4253392-1.0562375.2844214-.2702003.669683-.4059469,1.1570778-.4059469.5145441,0,.9101484.125404,1.1868128.3762119.2779572.2508079.4162895.6115059.4162895,1.0859725,0,.4188751-.1422107.7640592-.4253392,1.0342595-.2844214.2714931-.67744.4059469-1.177763.4059469Zm-1.2178406,12.9696142v-10.6955361h2.4964439v10.6955361h-2.4964439Zm4.7084664-8.3826733v-2.3128628h6.9424669v2.3128628h-6.9424669Zm2.1111822,8.3826733v-13.4156386h2.4964439v13.4156386h-2.4964439Zm8.3606953,4.6683888l2.2740781-5.2566239.0193924,1.663865-5.2773091-11.771166h2.8829984l2.9424683,6.9812517c.0943762.1758241.1900452.4098253.2844214.7007108s.1758241.5778925.243051.8623139l-.5067872.161603c.0943762-.2559792.1952165-.530058.3038137-.8209435s.2094375-.5921136.3051066-.9036842l2.5158362-6.9812517h2.9023907l-4.4641226,10.6955361-1.8267608,4.6683888h-2.598577Zm16.8661869-4.6683888v-14.2068471h9.2954073v2.3943108h-6.6981231v9.4182256h6.7795711v2.3943108h-9.3768552Zm1.2178406-6.0892028v-2.3542332h7.0420144v2.3542332h-7.0420144Zm15.2230071,6.2921763c-.9476403,0-1.7970259-.2404653-2.5481569-.7201032-.751131-.4809307-1.3458302-1.1363926-1.7853905-1.9689715s-.6593404-1.7892689-.6593404-2.8726558c0-1.0678729.2159017-2.0219773.6489978-2.8610204s1.0252097-1.4983835,1.7763407-1.9793141c.7498381-.4796378,1.5992238-.7201032,2.546864-.7201032.5132513,0,1.0109887.0814479,1.4919193.243051.4796378.1628959.9088555.382676,1.2889459.6606333.3775047.2766644.6800256.5843566.9023914.9230766.2236586.33872.3490626.6903682.3762119,1.0549447l-.669683.0814479v-7.0626996h2.4964439v15.0187408h-2.4162888l-.0607627-2.5171291.4873948.0413704c-.0142211.3374272-.1318681.6632189-.3555267.9734968-.2223658.3115707-.5106656.595992-.8623139.8532641s-.7614736.4628311-1.2281832.6179701c-.4667096.1564318-.9437618.2340012-1.4298638.2340012Zm.486102-2.1111822c.581771,0,1.0963151-.1486748,1.5423395-.4460244.4473172-.2973496.795087-.7032965,1.0458949-1.2178406.2495151-.5145441.3749191-1.1092433.3749191-1.7866833,0-.6619261-.125404-1.2540396-.3749191-1.7750479-.2508079-.5210082-.5985777-.9269551-1.0458949-1.2178406-.4460244-.2908855-.9605685-.4369746-1.5423395-.4369746s-1.0950223.1460892-1.5423395.4369746c-.4460244.2908855-.795087.6968323-1.0446021,1.2178406-.2508079.5210082-.3762119,1.1131218-.3762119,1.7750479,0,.67744.125404,1.2721392.3762119,1.7866833.2495151.5145441.5985777.920491,1.0446021,1.2178406.4473172.2973496.9605685.4460244,1.5423395.4460244Zm9.7220393-11.0614054c-.500323,0-.8894632-.1241111-1.1674204-.3749191-.2766644-.2508079-.4149966-.6050418-.4149966-1.0652873,0-.4330962.1409179-.7847444.4253392-1.0562375.2844214-.2702003.669683-.4059469,1.1570778-.4059469.5145441,0,.9101484.125404,1.1868128.3762119.2779572.2508079.4162895.6115059.4162895,1.0859725,0,.4188751-.1422107.7640592-.4253392,1.0342595-.2844214.2714931-.67744.4059469-1.177763.4059469Zm-1.2178406,12.9696142v-10.6955361h2.4964439v10.6955361h-2.4964439Zm4.7084664-8.3826733v-2.3128628h6.9424669v2.3128628h-6.9424669Zm2.1111822,8.3826733v-13.4156386h2.4964439v13.4156386h-2.4964439Zm8.2391698-12.9696142c-.500323,0-.8894632-.1241111-1.1674204-.3749191-.2766644-.2508079-.4149966-.6050418-.4149966-1.0652873,0-.4330962.1409179-.7847444.4253392-1.0562375.2844214-.2702003.669683-.4059469,1.1570778-.4059469.5145441,0,.9101484.125404,1.1868128.3762119.2779572.2508079.4162895.6115059.4162895,1.0859725,0,.4188751-.1422107.7640592-.4253392,1.0342595-.2844214.2714931-.67744.4059469-1.177763.4059469Zm-1.2178406,12.9696142v-10.6955361h2.4964439v10.6955361h-2.4964439Zm10.5546182.2029734c-1.0691658,0-2.0232702-.2404653-2.8623132-.7201032-.839043-.4809307-1.5009691-1.1402711-1.9883639-1.9793141-.4873948-.839043-.7304458-1.7931474-.7304458-2.8623132,0-1.0678729.243051-2.0219773.7304458-2.8610204s1.1493209-1.4983835,1.9883639-1.9793141c.839043-.4796378,1.7931474-.7201032,2.8623132-.7201032,1.0549447,0,2.002585.2404653,2.841628.7201032.8377502.4809307,1.4983835,1.1402711,1.9780213,1.9793141.4809307.839043.721396,1.7931474.721396,2.8610204,0,1.0691658-.2404653,2.0232702-.721396,2.8623132-.4796378.839043-1.1402711,1.4983835-1.9780213,1.9793141-.839043.4796378-1.7866833.7201032-2.841628.7201032Zm0-2.2120225c.581771,0,1.0989007-.1486748,1.5526821-.4473172.4524885-.2973496.8118937-.6955395,1.0756299-1.1971554.2637362-.500323.3891401-1.0678729.3749191-1.7052354.0142211-.6489978-.1111829-1.2243047-.3749191-1.7246277s-.6231414-.8959273-1.0756299-1.1868128c-.4537814-.2908855-.9709111-.4369746-1.5526821-.4369746s-1.1066577.1460892-1.5733673.4369746-.8287004.6890754-1.0859725,1.1971554c-.2572721.5067872-.3852617,1.0795084-.3852617,1.7142851,0,.6373624.1279896,1.2049123.3852617,1.7052354.2572721.5016159.6192629.8998058,1.0859725,1.1971554.4667096.2986424.9915963.4473172,1.5733673.4473172Zm7.7724602,2.0090491v-10.6955361h2.4356811l.0413704,2.1913373-.4667096.2443438c.1344537-.4873948.3981899-.9308336.7912085-1.3303163.3917258-.3981899.8584354-.7201032,1.4001288-.9631542.5416934-.2443438,1.0963151-.3658693,1.663865-.3658693.8118937,0,1.4919193.1628959,2.0400769.4873948s.9605685.8118937,1.2385258,1.4608915c.2766644.6489978.4162895,1.4608915.4162895,2.4356811v6.5352272h-2.4964439v-6.352939c0-.5404006-.0749838-.9903035-.2236586-1.3497087-.1486748-.3581124-.3787975-.6218485-.6903682-.7912085s-.6903682-.2469295-1.1363926-.2340012c-.3658693,0-.7007108.0581771-1.0045245.1732385-.3051066.1150614-.5688427.2779572-.7912085.4873948-.2236586.2094375-.3994827.4499029-.5287652.7201032-.1279896.2702003-.1926308.5688427-.1926308.8933416v6.4537793h-2.4964439Z"/><path id="Wordmark_-_Black" class="cls-4" d="m64.0882377,41.5681823V4.8286991h15.5888764c2.2042656,0,4.180994.5158369,5.9301854,1.5475108,1.7491914,1.0329667,3.1402704,2.4408524,4.1732371,4.2249501,1.0316739,1.7853905,1.5488036,3.7970252,1.5488036,6.036197,0,2.2753709-.5171298,4.3219119-1.5488036,6.1409158-1.0329667,1.8202967-2.4240457,3.2630887-4.1732371,4.3296688-1.7491914,1.0678729-3.7259199,1.6018094-5.9301854,1.6018094h-7.7155759v12.8584313h-7.8733005Zm7.7685817-19.9444017h6.9282459c.839043,0,1.5914668-.2184873,2.2559785-.6567548.6645117-.4369746,1.1984482-1.0226241,1.6018094-1.7582412.4007756-.7343242.603749-1.5746601.603749-2.5184219,0-.9450546-.2029734-1.7672909-.603749-2.4667089-.4033612-.699418-.9372977-1.2605038-1.6018094-1.6806717-.6645117-.4188751-1.4169355-.6296055-2.2559785-.6296055h-6.9282459v9.7104039Zm24.4576516,19.9444017V2.7291523h7.4531326v38.83903h-7.4531326Zm23.829339.5248867c-2.3102772,0-4.3917244-.6296055-6.2456346-1.8901092-1.855203-1.2592109-3.3251443-2.9734961-4.409824-5.1428554-1.0846797-2.1693593-1.6263731-4.6528749-1.6263731-7.4531326,0-2.7989648.5507432-5.2824804,1.6535224-7.4531326,1.1014864-2.1693593,2.5972842-3.8655449,4.4873934-5.0911424,1.8888164-1.2243047,4.041369-1.8371034,6.4550721-1.8371034,1.3652225,0,2.6153837.2016806,3.7530692.603749,1.1363926.4033612,2.1344531.9541044,2.9915956,1.6535224.8571426.7007108,1.582417,1.5048476,2.1784091,2.4137031.5946992.9114412,1.0148671,1.8901092,1.2592109,2.9398826l-1.5746601-.2624433v-6.7705213h7.4014196v27.7646964h-7.5061384v-6.6658025l1.6793789-.1577246c-.2805429.9799609-.7343242,1.9082088-1.3639297,2.7821581-.6296055.8752421-1.4091786,1.6535224-2.3361337,2.3361337-.9269551.6813184-1.9676787,1.2243047-3.1221709,1.6263731-1.155785.4020684-2.3800897.603749-3.6742069.603749Zm2.046541-6.456365c1.398836,0,2.6244335-.330963,3.6742069-.9967676,1.0497734-.6645117,1.8629599-1.6005166,2.4408524-2.8080146.5765997-1.207498.8661923-2.6153837.8661923-4.2249501,0-1.5746601-.2895927-2.9566894-.8661923-4.1460878-.5778925-1.1893984-1.391079-2.1254033-2.4408524-2.8080146s-2.2753709-1.0239169-3.6742069-1.0239169c-1.3639297,0-2.5636707.3413056-3.5953446,1.0239169-1.0316739.6826113-1.8461532,1.6186161-2.4408524,2.8080146-.5946992,1.1893984-.8920488,2.5714277-.8920488,4.1460878,0,1.6095664.2973496,3.0174521.8920488,4.2249501s1.4091786,2.1435028,2.4408524,2.8080146c1.0316739.6658046,2.2314149.9967676,3.5953446.9967676Zm29.7052258,6.456365c-2.0297343,0-3.7698759-.4460244-5.2217177-1.3380732-1.4531346-.8920488-2.5727205-2.1693593-3.3600506-3.8319315-.7860372-1.6612793-1.1803487-3.6651571-1.1803487-6.0090477V13.8034859h7.4531326v15.9030327c0,1.2592109.2094375,2.3529404.6296055,3.2798955.4201679.9282479,1.0148671,1.6367157,1.7840976,2.1254033.7692305.4912733,1.7142851.7356171,2.8351639.7356171.8041368,0,1.5475108-.1318681,2.2301221-.3943114s1.2773105-.6373624,1.7840976-1.1273429c.5067872-.4899804.9010986-1.0678729,1.1816415-1.7323847.2792501-.6645117.4201679-1.3820293.4201679-2.1525526V13.8034859h7.4531326v27.7646964h-7.0859704l-.2624433-5.7207479,1.3639297-.6296055c-.4188751,1.2941172-1.1195859,2.4667089-2.0995468,3.5164823s-2.1512598,1.8720097-3.5164823,2.4667089c-1.3639297.5946992-2.833871.8920488-4.4085311.8920488Zm31.8073582,0c-2.5895272,0-4.8907546-.4292177-6.9023894-1.2863603s-3.6302509-2.0374912-4.8545555-3.5423388l4.6709745-3.9883632c1.0497734,1.1544922,2.2391718,1.9857782,3.5694881,2.4925654,1.3290235.50808,2.6580469.7614736,3.9883632.7614736.5248867,0,1.0058174-.0607627,1.4440848-.1835811.4369746-.1228183.8131865-.2973496,1.1273429-.5248867.3154491-.2275371.552036-.5067872.7097606-.8403358.1564318-.3322559.235294-.6903682.235294-1.0756299,0-.7692305-.3141563-1.3652225-.9450546-1.7853905-.3490626-.2094375-.8920488-.4460244-1.6263731-.7084678s-1.6793789-.5507432-2.833871-.8661923c-1.7853905-.4537814-3.2992878-.9877178-4.5403992-1.6005166-1.2424042-.6115059-2.2301221-1.303167-2.9657391-2.0723975-.6296055-.7356171-1.1105361-1.5307041-1.442792-2.3891395-.3335487-.8558497-.4990302-1.8099541-.4990302-2.8597275,0-1.2592109.2792501-2.4059462.8403358-3.43762.5585001-1.0316739,1.3380732-1.9159657,2.3348408-2.65029.9980604-.7356171,2.1435028-1.303167,3.43762-1.7065282,1.2941172-.4020684,2.6593398-.603749,4.0943748-.603749,1.4337422,0,2.833871.1758241,4.1990936.5248867,1.3639297.3503554,2.6321904.8493856,3.8047822,1.4957978,1.1725917.647705,2.1952158,1.4091786,3.0704579,2.2831279l-3.9883632,4.4085311c-.6296055-.5934064-1.3393661-1.1363926-2.1254033-1.6263731-.78733-.4899804-1.6018094-.8739493-2.4408524-1.1544922-.8403358-.2805429-1.5927596-.4201679-2.2572714-.4201679-.595992,0-1.1286357.0530058-1.6005166.1577246-.4731737.1047188-.8661923.2714931-1.1816415.4977374-.3141563.2288299-.5507432.4990302-.7084678.8144794-.1577246.3141563-.235294.6645117-.235294,1.0497734s.095669.7524238.2882998,1.1014864c.191338.3503554.4628311.647705.8131865.8920488.3852617.2107304.9528116.4550742,1.7065282.7356171.751131.2805429,1.7750479.5946992,3.0704579.9450546,1.6793789.4550742,3.1040713.9618613,4.276663,1.5216543s2.1073037,1.207498,2.8080146,1.9418222c.5946992.6296055,1.0316739,1.347123,1.3122167,2.1512598.2792501.8054296.4201679,1.6987712.4201679,2.6774393,0,1.7142851-.4809307,3.2372322-1.4440848,4.5662557-.9618613,1.3303163-2.2831279,2.3800897-3.9625067,3.1493202-1.6793789.7692305-3.5681953,1.1544922-5.6677421,1.1544922Zm19.6276597-33.958618c-1.4350351,0-2.554621-.3581124-3.3587577-1.0756299-.8054296-.7162247-1.207498-1.7233349-1.207498-3.0174521,0-1.1893984.4111182-2.1603095,1.2333545-2.9140262.8222363-.751131,1.9340653-1.1273429,3.3329013-1.1273429,1.4350351,0,2.554621.3581124,3.3600506,1.0756299.8041368.7175175,1.2062051,1.7052354,1.2062051,2.9657391,0,1.1893984-.4111182,2.1693593-1.2333545,2.9385898-.8222363.7705233-1.9327724,1.1544922-3.3329013,1.1544922Zm-3.6729141,33.4337313V13.8034859h7.4518397v27.7646964h-7.4518397Zm30.3891299.5248867c-1.2255975,0-2.4149959-.1758241-3.5694881-.5248867s-2.2042656-.8312861-3.1493202-1.442792c-.9450546-.6127988-1.7310918-1.3122167-2.3619901-2.0995468-.6296055-.78733-1.0316739-1.6018094-1.2062051-2.4408524l1.6793789-.6296055-.3671621,6.5080779h-7.0342575V2.7291523h7.5061384v17.5824116l-1.4699413-.5778925c.2107304-.839043.6115059-1.6522296,1.207498-2.4395596.5946992-.78733,1.3458302-1.486748,2.2572714-2.0995468.9088555-.6127988,1.9056231-1.0937294,2.9915956-1.4440848,1.0833868-.3490626,2.2042656-.5248867,3.3587577-.5248867,2.4137031,0,4.5740127.6218485,6.4822214,1.8629599,1.906916,1.2424042,3.4027138,2.9489324,4.4873934,5.1182917,1.0833868,2.1693593,1.6263731,4.6541678,1.6263731,7.4531326s-.5339365,5.2837732-1.6005166,7.4518397c-1.0678729,2.1706521-2.5455712,3.8758875-4.4343876,5.1182917-1.8901092,1.2424042-4.0245623,1.8629599-6.4033592,1.8629599Zm-1.7853905-6.3503534c1.4001288,0,2.6153837-.3413056,3.6483504-1.0239169,1.0316739-.6826113,1.8448604-1.6276659,2.4408524-2.833871.5946992-1.207498.8920488-2.6153837.8920488-4.2249501,0-1.5746601-.2882998-2.9734961-.8661923-4.1990936-.5778925-1.2243047-1.391079-2.1693593-2.4408524-2.833871s-2.2740781-.9980604-3.6742069-.9980604c-1.398836,0-2.6231407.3335487-3.6729141.9980604-1.0497734.6645117-1.8642528,1.6095664-2.4408524,2.833871-.5778925,1.2255975-.8661923,2.6244335-.8661923,4.1990936,0,1.6095664.2882998,3.0174521.8661923,4.2249501.5765997,1.2062051,1.391079,2.1512598,2.4408524,2.833871s2.2740781,1.0239169,3.6729141,1.0239169Zm18.8416225,5.8254667V2.7291523h7.4531326v38.83903h-7.4531326Zm26.6102042.5248867c-3.0096952,0-5.6418856-.6115059-7.8978641-1.8371034-2.2572714-1.2243047-4.0077556-2.9036836-5.248867-5.0381366-1.2424042-2.1344531-1.8629599-4.5843553-1.8629599-7.3484138,0-2.1693593.3490626-4.1460878,1.0484806-5.9314783.7007108-1.7840976,1.6806717-3.3316084,2.9398826-4.6438252,1.2592109-1.3122167,2.7550088-2.3270839,4.4873934-3.0446014s3.6121513-1.0756299,5.6418856-1.0756299c1.8901092,0,3.6393006.3503554,5.248867,1.0497734,1.6095664.699418,2.9993526,1.6703291,4.1732371,2.9127333,1.1712989,1.2424042,2.0723975,2.7123455,2.702003,4.4085311.6308983,1.6974784.9101484,3.5255321.8403358,5.484161l-.0530058,2.3102772h-22.3063919l-1.2062051-4.5662557h17.3716812l-.839043.9450546v-1.155785c-.0711053-.9437618-.3762119-1.7918546-.9191981-2.5455712-.5429862-.751131-1.2333545-1.3458302-2.0723975-1.7840976-.8403358-.4369746-1.7853905-.655462-2.8351639-.655462-1.5397538,0-2.8429208.2973496-3.9095009.8920488-1.0678729.5946992-1.8810595,1.4686485-2.4408524,2.6244335-.559793,1.1544922-.839043,2.554621-.839043,4.1978008,0,1.6806717.3581124,3.1325135,1.0756299,4.3568182.7162247,1.2255975,1.7323847,2.1784091,3.0446014,2.8610204,1.3109239.6813184,2.8597275,1.0226241,4.6438252,1.0226241,1.2243047,0,2.3438906-.191338,3.3600506-.5765997,1.0135743-.3852617,2.0995468-1.0497734,3.254039-1.994828l3.5681953,4.9864236c-1.0148671.9101484-2.1344531,1.6716219-3.3587577,2.2831279-1.2255975.6127988-2.4848085,1.0756299-3.7789257,1.391079-1.29541.3141563-2.5714277.4718809-3.8319315.4718809Z"/></g></g></svg>
