<?xml version="1.0" encoding="UTF-8"?><svg id="Ebene_2" xmlns="http://www.w3.org/2000/svg" viewBox="0 0 512 273.45"><g id="Ebene_1-2"><rect width="512" height="273.45" style="stroke-width:0px;"/><path d="M108.19,163.18c0,4.73,1.25,8.55,3.75,11.45s6.11,4.36,10.84,4.36c4.32,0,7.77-1.08,10.33-3.24s3.85-5.4,3.85-9.73c0-3.51-1.02-6.18-3.04-8-2.03-1.82-4.39-3.27-7.09-4.36l-19.66-7.09c-7.7-2.7-13.51-6.52-17.43-11.45-3.92-4.93-5.88-11.25-5.88-18.95,0-4.46.74-8.68,2.23-12.66,1.48-3.98,3.85-7.46,7.09-10.44,3.25-2.97,7.4-5.34,12.46-7.09s11.18-2.64,18.34-2.64c12.69,0,22.08,2.7,28.17,8.1,6.08,5.41,9.12,13.04,9.12,22.9v4.46h-25.12c0-5.67-.91-9.83-2.74-12.46-1.82-2.63-5.03-3.95-9.62-3.95-3.52,0-6.58.98-9.22,2.94-2.63,1.96-3.95,4.9-3.95,8.82,0,2.7.84,5.14,2.53,7.3s4.89,3.98,9.63,5.47l16.82,5.68c8.78,2.97,15,6.86,18.64,11.65s5.47,11.32,5.47,19.55c0,5.81-1.02,10.84-3.04,15.1-2.03,4.25-4.83,7.8-8.41,10.64-3.58,2.84-7.84,4.86-12.76,6.08-4.93,1.21-10.37,1.82-16.31,1.82-7.84,0-14.36-.75-19.55-2.23-5.2-1.48-9.32-3.71-12.36-6.69-3.04-2.97-5.17-6.59-6.38-10.84-1.22-4.25-1.83-9.02-1.83-14.28v-3.85h25.13v3.65Z" style="fill:#fff; stroke-width:0px;"/><path d="M176.07,115.97c1.49-7.16,3.92-13.14,7.3-17.93,3.38-4.79,7.8-8.44,13.27-10.94s12.19-3.75,20.16-3.75c8.38-.13,15.33.98,20.87,3.34s9.93,5.98,13.17,10.84c3.24,4.86,5.54,10.87,6.89,18.03,1.35,7.16,2.03,15.54,2.03,25.12s-.75,17.57-2.23,24.72c-1.49,7.16-3.92,13.14-7.3,17.93-3.38,4.8-7.8,8.34-13.27,10.64-5.47,2.3-12.2,3.45-20.16,3.45-8.38.13-15.33-.91-20.87-3.14-5.54-2.23-9.93-5.74-13.17-10.54-3.24-4.79-5.54-10.8-6.89-18.03-1.35-7.22-2.03-15.57-2.03-25.03s.74-17.56,2.23-24.72ZM202.21,156.09c.27,4.73.91,8.78,1.93,12.16,1.02,3.38,2.53,6.01,4.56,7.9,2.03,1.89,4.73,2.84,8.11,2.84,5.67,0,9.59-2.97,11.75-8.92,2.16-5.94,3.24-15.74,3.24-29.38s-1.08-23.44-3.24-29.38c-2.16-5.94-6.08-8.92-11.75-8.92-3.38,0-6.08.95-8.11,2.84-2.03,1.89-3.54,4.53-4.56,7.91-1.01,3.38-1.66,7.43-1.93,12.16-.27,4.73-.4,9.86-.4,15.4s.13,10.68.4,15.4Z" style="fill:#fff; stroke-width:0px;"/><path d="M290.35,86.18l12.77,77.41h.41l13.57-77.41h30.39l14.39,77.41h.41l13.17-77.41h26.75l-23.51,109.02h-31.81l-14.39-77.41h-.41l-13.58,77.41h-32.42l-23.71-109.02h27.96Z" style="fill:#fff; stroke-width:0px;"/><path d="M435.44,195.2h-26.75v-31.61h26.75v31.61Z" style="fill:#fff; stroke-width:0px;"/></g></svg>